<?xml version="1.0" encoding="UTF-8" standalone="no"?>
<!-- Created with Inkscape (http://www.inkscape.org/) -->

<svg
   version="1.1"
   id="svg2"
   width="793.70135"
   height="1122.52"
   viewBox="0 0 793.70135 1122.52"
   sodipodi:docname="Untitled-1.ai"
   xmlns:inkscape="http://www.inkscape.org/namespaces/inkscape"
   xmlns:sodipodi="http://sodipodi.sourceforge.net/DTD/sodipodi-0.dtd"
   xmlns="http://www.w3.org/2000/svg"
   xmlns:svg="http://www.w3.org/2000/svg">
  <defs
     id="defs6">
    <clipPath
       clipPathUnits="userSpaceOnUse"
       id="clipPath16">
      <path
         d="M 0,841.89 H 595.276 V 0 H 0 Z"
         id="path14" />
    </clipPath>
    <linearGradient
       x1="0"
       y1="0"
       x2="1"
       y2="0"
       gradientUnits="userSpaceOnUse"
       gradientTransform="matrix(18.73472,-580.7796,-580.7796,-18.73472,291.26886,660.31042)"
       spreadMethod="pad"
       id="linearGradient108">
      <stop
         style="stop-opacity:1;stop-color:#5894cf"
         offset="0"
         id="stop98" />
      <stop
         style="stop-opacity:1;stop-color:#5894cf"
         offset="0.0591398"
         id="stop100" />
      <stop
         style="stop-opacity:1;stop-color:#4b5eaa"
         offset="0.730776"
         id="stop102" />
      <stop
         style="stop-opacity:1;stop-color:#4855a5"
         offset="0.994624"
         id="stop104" />
      <stop
         style="stop-opacity:1;stop-color:#4855a5"
         offset="1"
         id="stop106" />
    </linearGradient>
    <clipPath
       clipPathUnits="userSpaceOnUse"
       id="clipPath118">
      <path
         d="M 0,841.89 H 595.276 V 0 H 0 Z"
         id="path116" />
    </clipPath>
    <clipPath
       clipPathUnits="userSpaceOnUse"
       id="clipPath126">
      <path
         d="M 167.267,662.366 H 437.561 V 140.241 H 167.267 Z"
         id="path124" />
    </clipPath>
    <linearGradient
       x1="0"
       y1="0"
       x2="1"
       y2="0"
       gradientUnits="userSpaceOnUse"
       gradientTransform="matrix(18.132812,-562.12036,-562.12036,-18.132812,294.42184,643.69678)"
       spreadMethod="pad"
       id="linearGradient142">
      <stop
         style="stop-opacity:1;stop-color:#5894cf"
         offset="0"
         id="stop132" />
      <stop
         style="stop-opacity:1;stop-color:#5894cf"
         offset="0.0591398"
         id="stop134" />
      <stop
         style="stop-opacity:1;stop-color:#4b5eaa"
         offset="0.730776"
         id="stop136" />
      <stop
         style="stop-opacity:1;stop-color:#4855a5"
         offset="0.994624"
         id="stop138" />
      <stop
         style="stop-opacity:1;stop-color:#4855a5"
         offset="1"
         id="stop140" />
    </linearGradient>
    <linearGradient
       x1="0"
       y1="0"
       x2="1"
       y2="0"
       gradientUnits="userSpaceOnUse"
       gradientTransform="matrix(19.330587,-527.47559,-527.47559,-19.330587,289.7157,708.98773)"
       spreadMethod="pad"
       id="linearGradient196">
      <stop
         style="stop-opacity:1;stop-color:#ffffff"
         offset="0"
         id="stop188" />
      <stop
         style="stop-opacity:1;stop-color:#ffffff"
         offset="0.0591398"
         id="stop190" />
      <stop
         style="stop-opacity:1;stop-color:#89898a"
         offset="0.830688"
         id="stop192" />
      <stop
         style="stop-opacity:1;stop-color:#89898a"
         offset="1"
         id="stop194" />
    </linearGradient>
    <clipPath
       clipPathUnits="userSpaceOnUse"
       id="clipPath206">
      <path
         d="M 0,841.89 H 595.276 V 0 H 0 Z"
         id="path204" />
    </clipPath>
    <clipPath
       clipPathUnits="userSpaceOnUse"
       id="clipPath214">
      <path
         d="M 240.067,527.346 H 369.412 V 359.822 H 240.067 Z"
         id="path212" />
    </clipPath>
    <clipPath
       clipPathUnits="userSpaceOnUse"
       id="clipPath298">
      <path
         d="M 196.847,438.085 H 415.916 V 290.594 H 196.847 Z"
         id="path296" />
    </clipPath>
    <clipPath
       clipPathUnits="userSpaceOnUse"
       id="clipPath322">
      <path
         d="M 192.405,441.119 H 410.738 V 295.772 H 192.405 Z"
         id="path320" />
    </clipPath>
    <clipPath
       clipPathUnits="userSpaceOnUse"
       id="clipPath342">
      <path
         d="M 191.669,410.08 H 410.738 V 397.653 H 191.669 Z"
         id="path340" />
    </clipPath>
    <clipPath
       clipPathUnits="userSpaceOnUse"
       id="clipPath356">
      <path
         d="m 333.872,325.959 h 54.613 v -7.047 h -54.613 z"
         id="path354" />
    </clipPath>
    <clipPath
       clipPathUnits="userSpaceOnUse"
       id="clipPath376">
      <path
         d="m 222.816,344.373 h 26.426 v -7.047 h -26.426 z"
         id="path374" />
    </clipPath>
    <clipPath
       clipPathUnits="userSpaceOnUse"
       id="clipPath392">
      <path
         d="m 222.816,326.757 h 54.615 v -7.046 h -54.615 z"
         id="path390" />
    </clipPath>
    <clipPath
       clipPathUnits="userSpaceOnUse"
       id="clipPath408">
      <path
         d="m 258.931,344.373 h 26.427 v -7.047 h -26.427 z"
         id="path406" />
    </clipPath>
    <clipPath
       clipPathUnits="userSpaceOnUse"
       id="clipPath524">
      <path
         d="m 481.489,230.233 h 91.829 v -77.105 h -91.829 z"
         id="path522" />
    </clipPath>
    <linearGradient
       x1="0"
       y1="0"
       x2="1"
       y2="0"
       gradientUnits="userSpaceOnUse"
       gradientTransform="matrix(40.781284,-186.41374,-187.98019,6.2136207,420.22595,214.55252)"
       spreadMethod="pad"
       id="linearGradient586">
      <stop
         style="stop-opacity:1;stop-color:#69c8c3"
         offset="0"
         id="stop578" />
      <stop
         style="stop-opacity:1;stop-color:#69c8c3"
         offset="0.0591398"
         id="stop580" />
      <stop
         style="stop-opacity:1;stop-color:#03acdd"
         offset="0.456989"
         id="stop582" />
      <stop
         style="stop-opacity:1;stop-color:#03acdd"
         offset="1"
         id="stop584" />
    </linearGradient>
    <clipPath
       clipPathUnits="userSpaceOnUse"
       id="clipPath596">
      <path
         d="M 0,841.89 H 595.276 V 0 H 0 Z"
         id="path594" />
    </clipPath>
    <clipPath
       clipPathUnits="userSpaceOnUse"
       id="clipPath604">
      <path
         d="M 351.308,240.486 H 462.873 V 150.933 H 351.308 Z"
         id="path602" />
    </clipPath>
    <clipPath
       clipPathUnits="userSpaceOnUse"
       id="clipPath608">
      <path
         d="m 376.717,150.933 c 13.123,12.185 24.866,25.741 36.705,39.161 11.431,12.954 23.324,25.264 35.759,37.248 4.497,4.333 9.096,8.702 13.692,13.144 H 357.677 c -4.511,0 -7.249,-3.661 -6.111,-8.174 l 18.67,-74.042 c 0.817,-3.241 3.414,-6.016 6.481,-7.337"
         id="path606" />
    </clipPath>
    <linearGradient
       x1="0"
       y1="0"
       x2="1"
       y2="0"
       gradientUnits="userSpaceOnUse"
       gradientTransform="matrix(-13.808817,-104.94215,-104.94215,13.808817,406.9433,236.51547)"
       spreadMethod="pad"
       id="linearGradient622">
      <stop
         style="stop-opacity:1;stop-color:#ffffff"
         offset="0"
         id="stop614" />
      <stop
         style="stop-opacity:1;stop-color:#ffffff"
         offset="0.047619"
         id="stop616" />
      <stop
         style="stop-opacity:0;stop-color:#ffffff"
         offset="0.632047"
         id="stop618" />
      <stop
         style="stop-opacity:0;stop-color:#ffffff"
         offset="1"
         id="stop620" />
    </linearGradient>
    <mask
       maskUnits="userSpaceOnUse"
       x="0"
       y="0"
       width="1"
       height="1"
       id="mask624">
      <g
         id="g634">
        <g
           id="g632">
          <g
             id="g630">
            <g
               id="g628">
              <path
                 d="M -32768,32767 H 32767 V -32768 H -32768 Z"
                 style="fill:url(#linearGradient622);stroke:none"
                 id="path626" />
            </g>
          </g>
        </g>
      </g>
    </mask>
    <linearGradient
       x1="0"
       y1="0"
       x2="1"
       y2="0"
       gradientUnits="userSpaceOnUse"
       gradientTransform="matrix(-13.808817,-104.94215,-104.94215,13.808817,406.9433,236.51547)"
       spreadMethod="pad"
       id="linearGradient644">
      <stop
         style="stop-opacity:1;stop-color:#ffffff"
         offset="0"
         id="stop636" />
      <stop
         style="stop-opacity:1;stop-color:#ffffff"
         offset="0.047619"
         id="stop638" />
      <stop
         style="stop-opacity:1;stop-color:#ffffff"
         offset="0.632047"
         id="stop640" />
      <stop
         style="stop-opacity:1;stop-color:#ffffff"
         offset="1"
         id="stop642" />
    </linearGradient>
    <clipPath
       clipPathUnits="userSpaceOnUse"
       id="clipPath670">
      <path
         d="m 463.344,245.211 h 42.404 V 145.87 h -42.404 z"
         id="path668" />
    </clipPath>
    <linearGradient
       x1="0"
       y1="0"
       x2="1"
       y2="0"
       gradientUnits="userSpaceOnUse"
       gradientTransform="matrix(-22.783813,-171.91472,-171.91472,22.783813,505.08444,353.64136)"
       spreadMethod="pad"
       id="linearGradient684">
      <stop
         style="stop-opacity:1;stop-color:#69c8c3"
         offset="0"
         id="stop676" />
      <stop
         style="stop-opacity:1;stop-color:#69c8c3"
         offset="0.0591398"
         id="stop678" />
      <stop
         style="stop-opacity:1;stop-color:#03acdd"
         offset="0.456989"
         id="stop680" />
      <stop
         style="stop-opacity:1;stop-color:#03acdd"
         offset="1"
         id="stop682" />
    </linearGradient>
    <clipPath
       clipPathUnits="userSpaceOnUse"
       id="clipPath718">
      <path
         d="M 105.055,612.129 H 250.317 V 451.425 H 105.055 Z"
         id="path716" />
    </clipPath>
    <linearGradient
       x1="0"
       y1="0"
       x2="1"
       y2="0"
       gradientUnits="userSpaceOnUse"
       gradientTransform="matrix(145.26154,0,0,-145.26154,99.876953,535.91949)"
       spreadMethod="pad"
       id="linearGradient748">
      <stop
         style="stop-opacity:1;stop-color:#febe26"
         offset="0"
         id="stop740" />
      <stop
         style="stop-opacity:1;stop-color:#febe26"
         offset="0.0967742"
         id="stop742" />
      <stop
         style="stop-opacity:1;stop-color:#faa529"
         offset="0.77957"
         id="stop744" />
      <stop
         style="stop-opacity:1;stop-color:#faa529"
         offset="1"
         id="stop746" />
    </linearGradient>
    <linearGradient
       x1="0"
       y1="0"
       x2="1"
       y2="0"
       gradientUnits="userSpaceOnUse"
       gradientTransform="matrix(-124.73054,-26.84057,-26.84057,124.73054,253.34785,553.34064)"
       spreadMethod="pad"
       id="linearGradient772">
      <stop
         style="stop-opacity:1;stop-color:#febe26"
         offset="0"
         id="stop764" />
      <stop
         style="stop-opacity:1;stop-color:#febe26"
         offset="0.0967742"
         id="stop766" />
      <stop
         style="stop-opacity:1;stop-color:#d23927"
         offset="0.798155"
         id="stop768" />
      <stop
         style="stop-opacity:1;stop-color:#d23927"
         offset="1"
         id="stop770" />
    </linearGradient>
    <clipPath
       clipPathUnits="userSpaceOnUse"
       id="clipPath782">
      <path
         d="M 0,841.89 H 595.276 V 0 H 0 Z"
         id="path780" />
    </clipPath>
    <clipPath
       clipPathUnits="userSpaceOnUse"
       id="clipPath790">
      <path
         d="m 174.775,593.482 h 49.906 V 479.379 h -49.906 z"
         id="path788" />
    </clipPath>
    <clipPath
       clipPathUnits="userSpaceOnUse"
       id="clipPath794">
      <path
         d="m 223.674,583.054 c 0,0 -4.032,0.502 -15.628,2.015 -10.57,1.379 -29.934,7.366 -33.271,8.413 V 479.379 c 5.249,3.125 19.906,12.181 33.271,23.521 16.635,14.117 16.635,58.476 16.635,68.558 0,10.083 -1.007,11.596 -1.007,11.596"
         id="path792" />
    </clipPath>
    <linearGradient
       x1="0"
       y1="0"
       x2="1"
       y2="0"
       gradientUnits="userSpaceOnUse"
       gradientTransform="matrix(-112.20984,2.2983532,2.2983532,112.20984,266.43628,534.55273)"
       spreadMethod="pad"
       id="linearGradient808">
      <stop
         style="stop-opacity:1;stop-color:#ffffff"
         offset="0"
         id="stop800" />
      <stop
         style="stop-opacity:1;stop-color:#ffffff"
         offset="0.047619"
         id="stop802" />
      <stop
         style="stop-opacity:0;stop-color:#ffffff"
         offset="0.632047"
         id="stop804" />
      <stop
         style="stop-opacity:0;stop-color:#ffffff"
         offset="1"
         id="stop806" />
    </linearGradient>
    <mask
       maskUnits="userSpaceOnUse"
       x="0"
       y="0"
       width="1"
       height="1"
       id="mask810">
      <g
         id="g820">
        <g
           id="g818">
          <g
             id="g816">
            <g
               id="g814">
              <path
                 d="M -32768,32767 H 32767 V -32768 H -32768 Z"
                 style="fill:url(#linearGradient808);stroke:none"
                 id="path812" />
            </g>
          </g>
        </g>
      </g>
    </mask>
    <linearGradient
       x1="0"
       y1="0"
       x2="1"
       y2="0"
       gradientUnits="userSpaceOnUse"
       gradientTransform="matrix(-112.20984,2.2983532,2.2983532,112.20984,266.43628,534.55273)"
       spreadMethod="pad"
       id="linearGradient830">
      <stop
         style="stop-opacity:1;stop-color:#ffffff"
         offset="0"
         id="stop822" />
      <stop
         style="stop-opacity:1;stop-color:#ffffff"
         offset="0.047619"
         id="stop824" />
      <stop
         style="stop-opacity:1;stop-color:#ffffff"
         offset="0.632047"
         id="stop826" />
      <stop
         style="stop-opacity:1;stop-color:#ffffff"
         offset="1"
         id="stop828" />
    </linearGradient>
    <linearGradient
       x1="0"
       y1="0"
       x2="1"
       y2="0"
       gradientUnits="userSpaceOnUse"
       gradientTransform="matrix(-52.186752,1.0689222,1.0689222,52.186752,198.83617,543.58319)"
       spreadMethod="pad"
       id="linearGradient870">
      <stop
         style="stop-opacity:1;stop-color:#febe26"
         offset="0"
         id="stop862" />
      <stop
         style="stop-opacity:1;stop-color:#febe26"
         offset="0.0967742"
         id="stop864" />
      <stop
         style="stop-opacity:1;stop-color:#faa529"
         offset="0.77957"
         id="stop866" />
      <stop
         style="stop-opacity:1;stop-color:#faa529"
         offset="1"
         id="stop868" />
    </linearGradient>
    <clipPath
       clipPathUnits="userSpaceOnUse"
       id="clipPath880">
      <path
         d="M 0,841.89 H 595.276 V 0 H 0 Z"
         id="path878" />
    </clipPath>
  </defs>
  <sodipodi:namedview
     id="namedview4"
     pagecolor="#ffffff"
     bordercolor="#000000"
     borderopacity="0.25"
     inkscape:showpageshadow="2"
     inkscape:pageopacity="0.0"
     inkscape:pagecheckerboard="0"
     inkscape:deskcolor="#d1d1d1" />
  <g
     id="g8"
     inkscape:groupmode="layer"
     inkscape:label="Untitled-1"
     transform="matrix(1.3333333,0,0,-1.3333333,0,1122.52)">
    <g
       id="g10">
      <g
         id="g12"
         clip-path="url(#clipPath16)">
        <g
           id="g18"
           transform="translate(195.8698,278.4213)">
          <path
             d="m 0,0 c 0,0 -40.041,19.333 -67.659,-5.522 -27.618,-24.855 -19.333,-63.518 -19.333,-63.518 0,0 -15.19,19.332 -33.14,5.523 -17.949,-13.808 -13.806,-40.045 -13.806,-40.045 0,0 -27.618,2.763 -26.237,-16.57 1.382,-19.333 8.283,-17.949 44.186,-17.949 35.903,0 143.607,4.142 143.607,4.142 l 6.903,33.14 z"
             style="fill:#86cb9c;fill-opacity:1;fill-rule:nonzero;stroke:none"
             id="path20" />
        </g>
        <g
           id="g22"
           transform="translate(195.8698,278.4213)">
          <path
             d="m 0,0 c 0,0 -21.754,10.483 -44.252,6.054 v -122.089 c 0,-11.17 9.263,-20.12 20.427,-19.745 28.357,0.954 51.443,1.841 51.443,1.841 l 6.903,33.14 z"
             style="fill:#5dbe7a;fill-opacity:1;fill-rule:nonzero;stroke:none"
             id="path24" />
        </g>
        <g
           id="g26"
           transform="translate(104.2802,191.5822)">
          <path
             d="M 0,0 C 28.279,-0.429 51.554,22.152 51.981,50.426 52.212,65.653 45.765,79.42 35.356,88.958 31.413,87.074 27.563,84.586 23.931,81.317 -3.687,56.462 4.598,17.799 4.598,17.799 c 0,0 -15.191,19.332 -33.14,5.524 -3.035,-2.336 -5.426,-5.03 -7.325,-7.889 C -26.748,6.094 -14.081,0.213 0,0"
             style="fill:#5dbe7a;fill-opacity:1;fill-rule:nonzero;stroke:none"
             id="path28" />
        </g>
        <g
           id="g30"
           transform="translate(544.8992,528.3773)">
          <path
             d="m 0,0 c -16.958,-11.595 -32.565,-24.975 -46.854,-39.693 14.418,-1.286 28.466,3.966 42.807,4.669 1.48,0.072 1.917,-2.223 0.418,-2.297 -15.17,-0.741 -29.988,-6.486 -45.274,-4.513 -12.579,-13.192 -24.096,-27.439 -34.6,-42.41 10.201,1.777 20.456,3.249 30.648,5.075 1.481,0.264 1.899,-2.032 0.419,-2.297 -10.876,-1.946 -21.823,-3.479 -32.699,-5.424 -0.079,-0.014 -0.144,0.005 -0.219,0.005 -4.907,-7.116 -9.565,-14.403 -14.017,-21.807 0.014,-0.217 0.023,-0.432 0.035,-0.649 0.046,-0.805 -0.611,-1.285 -1.234,-1.331 -2.037,-3.429 -4.019,-6.887 -5.961,-10.368 6.986,1.317 13.896,2.933 21.018,3.253 1.499,0.069 1.276,-2.258 -0.207,-2.324 -6.996,-0.316 -13.809,-1.995 -20.668,-3.277 -0.538,-0.101 -0.93,0.141 -1.146,0.501 -5.611,-10.176 -10.828,-20.536 -15.608,-31.026 -0.62,-1.359 -2.819,-0.576 -2.194,0.797 6.988,15.326 14.885,30.387 23.619,44.98 -0.429,7.961 -0.75,15.912 -0.304,23.886 0.085,1.502 2.407,1.293 2.325,-0.208 -0.377,-6.699 -0.205,-13.377 0.115,-20.065 9.703,15.856 20.453,31.106 32.27,45.43 -0.346,0.191 -0.595,0.543 -0.534,1.062 0.967,8.347 1.934,17.206 0.057,25.484 -0.334,1.468 1.964,1.881 2.295,0.418 1.817,-8.002 1.06,-16.531 0.138,-24.648 13.111,15.622 27.482,30.128 43.196,43.039 -0.165,0.202 -0.265,0.474 -0.212,0.824 0.874,6.024 -0.069,11.979 -0.684,17.981 -0.151,1.487 2.142,1.915 2.296,0.418 0.595,-5.809 1.473,-11.585 0.843,-17.41 5.949,4.793 12.076,9.374 18.399,13.696 C -0.287,2.612 1.24,0.848 0,0 M 34.687,14.352 C 19.628,36.23 -9.531,41.391 -59.208,-7.93 c -49.677,-49.32 -70.588,-138.177 -70.588,-138.177 l 4.695,-10.372 -3.825,-17.539 c 0,0 60.013,71.271 102.615,107.095 42.602,35.823 78.167,56.33 60.998,81.275"
             style="fill:#86cb9c;fill-opacity:1;fill-rule:nonzero;stroke:none"
             id="path32" />
        </g>
        <g
           id="g34"
           transform="translate(544.8992,528.3773)">
          <path
             d="m 0,0 c -16.958,-11.595 -32.565,-24.975 -46.854,-39.693 14.418,-1.286 28.466,3.966 42.807,4.669 1.48,0.072 1.917,-2.223 0.418,-2.297 -15.17,-0.741 -29.988,-6.486 -45.274,-4.513 -12.579,-13.192 -24.096,-27.439 -34.6,-42.41 10.201,1.777 20.456,3.249 30.648,5.075 1.481,0.264 1.899,-2.032 0.419,-2.297 -10.876,-1.946 -21.823,-3.479 -32.699,-5.424 -0.079,-0.014 -0.144,0.005 -0.219,0.005 -4.907,-7.116 -9.565,-14.403 -14.017,-21.807 0.014,-0.217 0.023,-0.432 0.035,-0.649 0.046,-0.805 -0.611,-1.285 -1.234,-1.331 -2.037,-3.429 -4.019,-6.887 -5.961,-10.368 6.986,1.317 13.896,2.933 21.018,3.253 1.499,0.069 1.276,-2.258 -0.207,-2.324 -6.996,-0.316 -13.809,-1.995 -20.668,-3.277 -0.538,-0.101 -0.93,0.141 -1.146,0.501 -5.611,-10.176 -10.828,-20.536 -15.608,-31.026 -0.62,-1.359 -2.819,-0.576 -2.194,0.797 6.988,15.326 14.885,30.387 23.619,44.98 -0.429,7.961 -0.75,15.912 -0.304,23.886 0.085,1.502 2.407,1.293 2.325,-0.208 -0.377,-6.699 -0.205,-13.377 0.115,-20.065 9.703,15.856 20.453,31.106 32.27,45.43 -0.346,0.191 -0.595,0.543 -0.534,1.062 0.967,8.347 1.934,17.206 0.057,25.484 -0.334,1.468 1.964,1.881 2.295,0.418 1.817,-8.002 1.06,-16.531 0.138,-24.648 13.111,15.622 27.482,30.128 43.196,43.039 -0.165,0.202 -0.265,0.474 -0.212,0.824 0.874,6.024 -0.069,11.979 -0.684,17.981 -0.151,1.487 2.142,1.915 2.296,0.418 0.595,-5.809 1.473,-11.585 0.843,-17.41 5.949,4.793 12.076,9.374 18.399,13.696 C -0.287,2.612 1.24,0.848 0,0 M 34.687,14.352 C 19.628,36.23 -9.531,41.391 -59.208,-7.93 c -49.677,-49.32 -70.588,-138.177 -70.588,-138.177 l 4.695,-10.372 -3.825,-17.539 c 0,0 60.013,71.271 102.615,107.095 42.602,35.823 78.167,56.33 60.998,81.275"
             style="fill:#86cb9c;fill-opacity:1;fill-rule:nonzero;stroke:none"
             id="path36" />
        </g>
        <g
           id="g38"
           transform="translate(444.329,417.7058)">
          <path
             d="m 0,0 c -2.037,-3.43 -4.019,-6.887 -5.961,-10.368 2.529,0.476 5.048,0.991 7.571,1.471 V 2.64 C 1.476,2.418 1.333,2.201 1.199,1.979 1.214,1.763 1.222,1.547 1.234,1.331 1.28,0.526 0.623,0.046 0,0"
             style="fill:#5da876;fill-opacity:1;fill-rule:nonzero;stroke:none"
             id="path40" />
        </g>
        <g
           id="g42"
           transform="translate(445.9385,388.5526)">
          <path
             d="m 0,0 v 17.898 c -2.477,-0.484 -4.949,-0.998 -7.427,-1.461 -0.538,-0.102 -0.93,0.141 -1.147,0.501 -5.611,-10.176 -10.827,-20.536 -15.607,-31.026 -0.621,-1.359 -2.819,-0.576 -2.194,0.797 6.988,15.326 14.885,30.387 23.619,44.98 -0.429,7.961 -0.751,15.912 -0.304,23.886 0.085,1.501 2.407,1.293 2.324,-0.209 C -1.112,48.668 -0.94,41.989 -0.621,35.302 -0.419,35.631 -0.202,35.951 0,36.28 V 75.369 C -21.355,33.996 -30.835,-6.282 -30.835,-6.282 l 4.694,-10.373 -3.825,-17.538 c 0,0 12.428,14.753 29.966,34.193"
             style="fill:#5da876;fill-opacity:1;fill-rule:nonzero;stroke:none"
             id="path44" />
        </g>
        <g
           id="g46"
           transform="translate(505.657,578.5654)">
          <path
             d="m 0,0 c -10.166,-16.188 -24.75,-27.514 -39.353,-39.406 3.499,7.842 6.699,15.871 9.567,24.028 0.696,-0.148 1.588,0.666 1.197,1.57 -0.119,0.278 -0.216,0.563 -0.334,0.842 5.375,15.731 9.408,31.947 11.522,48.345 0.17,1.322 -1.904,1.305 -2.072,0 -1.98,-15.367 -5.738,-30.528 -10.655,-45.292 -4.61,12.248 -6.505,25.304 -6.604,38.387 -0.01,1.335 -2.082,1.336 -2.071,0 0.109,-14.18 2.334,-28.241 7.664,-41.404 -3.057,-8.859 -6.517,-17.57 -10.286,-26.079 -3.469,-7.834 -7.288,-15.664 -11.529,-23.281 -3.133,9.633 -3.107,19.94 -3.111,30.008 0,1.336 -2.071,1.336 -2.071,0 0.004,-10.887 -0.022,-22.095 3.831,-32.418 -8.148,-14.228 -17.857,-27.6 -29.762,-38.653 -0.981,-0.91 0.487,-2.371 1.464,-1.464 11.882,11.03 21.52,24.306 29.655,38.432 0.653,-0.017 1.297,0.475 0.989,1.238 -0.042,0.105 -0.069,0.214 -0.111,0.319 4.401,7.78 8.37,15.797 12.003,23.831 0.317,-0.493 1.053,-0.789 1.65,-0.302 14.919,12.164 29.829,23.729 40.205,40.253 C 2.5,0.089 0.708,1.128 0,0"
             style="fill:#5da876;fill-opacity:1;fill-rule:nonzero;stroke:none"
             id="path48" />
        </g>
        <g
           id="g50"
           transform="translate(506.6096,628.0576)">
          <path
             d="m 0,0 c -1.539,-8.818 -16.55,-36.035 -24.505,-34.647 -7.957,1.388 -5.849,30.859 -4.312,39.675 1.539,8.82 9.237,14.843 17.195,13.454 C -3.663,17.093 1.541,8.818 0,0"
             style="fill:#5da876;fill-opacity:1;fill-rule:nonzero;stroke:none"
             id="path52" />
        </g>
        <g
           id="g54"
           transform="translate(471.0386,612.7903)">
          <path
             d="M 0,0 C 2.971,-6.229 5.846,-29.962 0.348,-32.584 -5.154,-35.21 -16.948,-15.73 -19.917,-9.503 -22.891,-3.274 -20.84,3.902 -15.338,6.526 -9.838,9.15 -2.967,6.229 0,0"
             style="fill:#5da876;fill-opacity:1;fill-rule:nonzero;stroke:none"
             id="path56" />
        </g>
        <g
           id="g58"
           transform="translate(460.4701,558.0594)">
          <path
             d="m 0,0 c 1.106,-6.812 -2.787,-30.4 -8.797,-31.376 -6.019,-0.979 -11.881,21.025 -12.985,27.835 -1.109,6.814 2.87,13.126 8.887,14.103 C -6.879,11.54 -1.103,6.81 0,0"
             style="fill:#5da876;fill-opacity:1;fill-rule:nonzero;stroke:none"
             id="path60" />
        </g>
        <g
           id="g62"
           transform="translate(529.2819,575.2713)">
          <path
             d="m 0,0 c -5.999,-6.642 -33.202,-21.677 -39.196,-16.263 -5.995,5.413 11.491,29.23 17.49,35.872 6.002,6.644 15.725,7.639 21.718,2.224 C 6.007,16.416 6.003,6.641 0,0"
             style="fill:#5da876;fill-opacity:1;fill-rule:nonzero;stroke:none"
             id="path64" />
        </g>
        <g
           id="g66"
           transform="translate(104.1913,345.2066)">
          <path
             d="m 0,0 c 10.166,-16.188 24.75,-27.513 39.353,-39.406 -3.499,7.842 -6.699,15.87 -9.567,24.029 -0.696,-0.149 -1.588,0.664 -1.197,1.57 0.119,0.277 0.216,0.562 0.333,0.841 -5.374,15.731 -9.407,31.947 -11.521,48.345 -0.17,1.321 1.904,1.304 2.071,0 1.981,-15.367 5.739,-30.529 10.656,-45.292 4.61,12.247 6.505,25.304 6.604,38.388 0.01,1.335 2.081,1.335 2.071,0 -0.109,-14.181 -2.334,-28.242 -7.664,-41.404 3.056,-8.86 6.517,-17.571 10.286,-26.081 3.469,-7.832 7.287,-15.663 11.529,-23.281 3.133,9.634 3.107,19.94 3.111,30.009 0,1.335 2.071,1.335 2.071,0 -0.004,-10.886 0.022,-22.096 -3.831,-32.418 8.147,-14.228 17.856,-27.599 29.762,-38.652 0.981,-0.91 -0.487,-2.372 -1.464,-1.464 -11.882,11.028 -21.52,24.305 -29.655,38.431 -0.653,-0.016 -1.297,0.474 -0.989,1.238 0.042,0.105 0.069,0.215 0.111,0.32 -4.401,7.779 -8.37,15.797 -12.003,23.831 -0.317,-0.494 -1.053,-0.789 -1.65,-0.303 C 23.498,-29.135 8.588,-17.569 -1.788,-1.046 -2.5,0.089 -0.708,1.129 0,0"
             style="fill:#5da876;fill-opacity:1;fill-rule:nonzero;stroke:none"
             id="path68" />
        </g>
        <g
           id="g70"
           transform="translate(103.2386,394.6977)">
          <path
             d="m 0,0 c 1.539,-8.817 16.55,-36.034 24.505,-34.645 7.957,1.388 5.85,30.859 4.312,39.673 C 27.278,13.849 19.58,19.871 11.622,18.483 3.663,17.094 -1.541,8.819 0,0"
             style="fill:#5da876;fill-opacity:1;fill-rule:nonzero;stroke:none"
             id="path72" />
        </g>
        <g
           id="g74"
           transform="translate(138.8096,379.4304)">
          <path
             d="m 0,0 c -2.971,-6.228 -5.845,-29.96 -0.348,-32.583 5.502,-2.626 17.296,16.855 20.266,23.08 2.973,6.23 0.922,13.407 -4.58,16.03 C 9.838,9.151 2.967,6.23 0,0"
             style="fill:#5da876;fill-opacity:1;fill-rule:nonzero;stroke:none"
             id="path76" />
        </g>
        <g
           id="g78"
           transform="translate(149.3782,324.7005)">
          <path
             d="m 0,0 c -1.106,-6.812 2.787,-30.401 8.797,-31.376 6.019,-0.979 11.881,21.024 12.985,27.836 1.109,6.813 -2.87,13.125 -8.887,14.102 C 6.879,11.541 1.102,6.81 0,0"
             style="fill:#5da876;fill-opacity:1;fill-rule:nonzero;stroke:none"
             id="path80" />
        </g>
        <g
           id="g82"
           transform="translate(80.5662,341.9135)">
          <path
             d="M 0,0 C 5.999,-6.642 33.203,-21.679 39.196,-16.264 45.191,-10.85 27.705,12.966 21.706,19.608 15.704,26.25 5.981,27.246 -0.012,21.833 -6.007,16.416 -6.003,6.639 0,0"
             style="fill:#5da876;fill-opacity:1;fill-rule:nonzero;stroke:none"
             id="path84" />
        </g>
      </g>
    </g>
    <g
       id="g86">
      <g
         id="g88">
        <g
           id="g94">
          <g
             id="g96">
            <path
               d="m 191.992,669.816 c -17.722,-1.968 -31.329,-18.604 -30.527,-36.352 v 0 c 6.473,-150.623 6.473,-301.245 0,-451.866 v 0 c -0.798,-17.752 12.806,-34.387 30.527,-36.355 v 0 c 71.662,-7.793 143.322,-6.48 214.983,3.938 v 0 c 17.72,2.632 31.337,19.507 30.554,36.889 v 0 c -6.345,147.639 -6.345,295.281 0,442.92 v 0 c 0.781,17.38 -12.832,34.255 -30.554,36.885 v 0 c -41,5.963 -81.991,8.944 -122.992,8.943 v 0 c -30.66,0 -61.33,-1.668 -91.991,-5.002"
               style="fill:url(#linearGradient108);stroke:none"
               id="path110" />
          </g>
        </g>
      </g>
    </g>
    <g
       id="g112">
      <g
         id="g114"
         clip-path="url(#clipPath118)">
        <g
           id="g120">
          <g
             id="g122" />
          <g
             id="g156">
            <g
               clip-path="url(#clipPath126)"
               id="g154">
              <g
                 id="g152">
                <g
                   id="g150">
                  <g
                     id="g148">
                    <g
                       id="g146">
                      <path
                         d="m 437.529,628.99 c 0.615,13.684 -7.711,27.024 -19.924,33.376 4.133,-6.176 6.448,-13.511 6.115,-20.949 -6.345,-147.639 -6.345,-295.28 0,-442.92 0.783,-17.381 -12.834,-34.257 -30.553,-36.888 -71.662,-10.419 -143.322,-11.732 -214.984,-3.938 -3.877,0.431 -7.54,1.598 -10.916,3.291 5.495,-8.427 14.4,-14.572 24.725,-15.719 71.662,-7.793 143.322,-6.48 214.984,3.939 17.719,2.631 31.335,19.506 30.553,36.887 -6.346,147.641 -6.346,295.282 0,442.921"
                         style="fill:url(#linearGradient142);stroke:none"
                         id="path144" />
                    </g>
                  </g>
                </g>
              </g>
            </g>
          </g>
        </g>
        <g
           id="g158"
           transform="translate(255.2358,652.5918)">
          <path
             d="M 0,0 H 51.115"
             style="fill:#231f20;fill-opacity:1;fill-rule:nonzero;stroke:none"
             id="path160" />
        </g>
        <g
           id="g162"
           transform="translate(306.3512,650.5206)">
          <path
             d="m 0,0 h -51.115 c -1.145,0 -2.072,0.927 -2.072,2.071 0,1.144 0.927,2.071 2.072,2.071 H 0 C 1.145,4.142 2.071,3.215 2.071,2.071 2.071,0.927 1.145,0 0,0"
             style="fill:#ffffff;fill-opacity:1;fill-rule:nonzero;stroke:none"
             id="path164" />
        </g>
        <g
           id="g166"
           transform="translate(317.304,652.5918)">
          <path
             d="M 0,0 H 9.735"
             style="fill:#231f20;fill-opacity:1;fill-rule:nonzero;stroke:none"
             id="path168" />
        </g>
        <g
           id="g170"
           transform="translate(327.0393,650.5206)">
          <path
             d="m 0,0 h -9.735 c -1.145,0 -2.071,0.927 -2.071,2.071 0,1.144 0.926,2.071 2.071,2.071 H 0 C 1.145,4.142 2.071,3.215 2.071,2.071 2.071,0.927 1.145,0 0,0"
             style="fill:#ffffff;fill-opacity:1;fill-rule:nonzero;stroke:none"
             id="path172" />
        </g>
        <path
           d="M 426.687,172 H 175.042 v 468.303 h 251.645 z"
           style="fill:#274a6e;fill-opacity:1;fill-rule:nonzero;stroke:none"
           id="path174" />
      </g>
    </g>
    <g
       id="g176">
      <g
         id="g178">
        <g
           id="g184">
          <g
             id="g186">
            <path
               d="M 175.042,181.535 H 426.687 V 628.002 H 175.042 Z"
               style="fill:url(#linearGradient196);stroke:none"
               id="path198" />
          </g>
        </g>
      </g>
    </g>
    <g
       id="g200">
      <g
         id="g202"
         clip-path="url(#clipPath206)">
        <g
           id="g208">
          <g
             id="g210" />
          <g
             id="g290">
            <g
               clip-path="url(#clipPath214)"
               opacity="0.300003"
               id="g288">
              <g
                 transform="translate(308.3516,359.8224)"
                 id="g218">
                <path
                   d="m 0,0 c -2.294,1.845 -2.405,3.188 -0.334,5.38 11.17,11.823 18.801,25.555 22.422,41.453 1.47,6.453 2.209,12.996 2.138,19.616 -0.055,5.12 0.251,10.292 -0.368,15.347 -1.622,13.228 -13.579,22.973 -26.894,22.36 -14.139,-0.651 -24.994,-11.919 -25.15,-26.078 -0.053,-4.741 0.057,-9.495 -0.271,-14.218 -0.496,-7.111 -3.281,-13.394 -7.87,-18.827 -2.602,-3.082 -5.352,-6.037 -8.063,-9.025 -1.367,-1.507 -2.905,-1.681 -4.15,-0.556 -1.216,1.098 -1.19,2.696 0.135,4.189 2.28,2.569 4.586,5.113 6.889,7.662 5.195,5.738 7.85,12.445 7.866,20.215 0.011,4.739 -0.095,9.5 0.302,14.213 1.163,13.789 13.174,25.961 26.938,27.573 17.648,2.067 32.547,-8.94 35.684,-26.374 0.164,-0.908 0.255,-1.836 0.302,-2.761 C 30.589,60.478 28.773,41.311 19.317,23.496 14.966,15.298 9.543,7.907 3.168,1.193 2.727,0.73 2.148,0.394 1.636,0 Z"
                   style="fill:#274a6e;fill-opacity:1;fill-rule:evenodd;stroke:none"
                   id="path216" />
              </g>
              <g
                 transform="translate(292.6454,359.8224)"
                 id="g222">
                <path
                   d="m 0,0 c -2.241,1.833 -2.312,3.097 -0.384,5.283 4.644,5.276 9.595,10.318 13.833,15.903 10.109,13.323 14.853,28.564 14.948,45.255 0.024,4.412 0.228,8.86 -0.219,13.231 C 27.359,87.641 20.625,93.038 12.63,92.583 5.237,92.16 -0.75,85.831 -0.926,78.149 -1.017,74.17 -0.888,70.187 -0.977,66.211 -1.222,55.355 -4.889,45.755 -11.863,37.456 c -2.874,-3.418 -5.937,-6.679 -8.936,-9.994 -1.426,-1.572 -3.032,-1.806 -4.268,-0.692 -1.24,1.121 -1.167,2.727 0.243,4.315 2.429,2.726 4.856,5.455 7.326,8.143 7.453,8.113 11.153,17.674 11.161,28.676 0.002,3.543 -0.073,7.089 0.034,10.631 0.304,9.964 7.871,18.279 17.505,19.335 10.287,1.127 19.409,-5.081 21.974,-14.974 0.207,-0.789 0.445,-1.596 0.467,-2.401 C 34.008,67.352 34.22,54.234 30.003,41.498 26.267,30.209 20.48,20.154 12.49,11.362 9.519,8.093 6.555,4.822 3.574,1.564 3.07,1.011 2.502,0.52 1.964,0 Z"
                   style="fill:#274a6e;fill-opacity:1;fill-rule:evenodd;stroke:none"
                   id="path220" />
              </g>
              <g
                 transform="translate(311.9499,527.3458)"
                 id="g226">
                <path
                   d="m 0,0 c 3.17,-0.429 6.347,-0.821 9.509,-1.305 1.826,-0.277 3.641,-0.657 5.443,-1.072 1.891,-0.435 2.791,-1.8 2.38,-3.446 -0.376,-1.503 -1.796,-2.233 -3.634,-1.825 -19.032,4.244 -37.426,2.44 -55.145,-5.809 -1.923,-0.898 -3.489,-0.498 -4.187,1.003 -0.746,1.604 -0.042,2.982 2.025,3.954 9.905,4.667 20.304,7.45 31.234,8.227 0.423,0.03 0.836,0.178 1.252,0.273 z"
                   style="fill:#274a6e;fill-opacity:1;fill-rule:evenodd;stroke:none"
                   id="path224" />
              </g>
              <g
                 transform="translate(314.8828,429.1422)"
                 id="g230">
                <path
                   d="m 0,0 c 0.38,-9.743 -1.232,-20.265 -5.53,-30.318 -2.803,-6.564 -6.458,-12.606 -11.173,-17.966 -4.177,-4.747 -8.459,-9.403 -12.721,-14.075 -1.25,-1.368 -2.882,-1.505 -4.045,-0.456 -1.186,1.068 -1.178,2.66 0.022,4.064 0.178,0.206 0.366,0.402 0.548,0.605 3.665,4.039 7.367,8.042 10.983,12.12 10.7,12.063 16.232,26.155 16.435,42.298 0.05,3.926 0.028,7.852 0.012,11.778 -0.01,2.294 -1.177,3.673 -3.036,3.678 -1.843,0.002 -3.032,-1.398 -3.063,-3.67 -0.06,-4.47 0.055,-8.948 -0.18,-13.408 -0.677,-12.955 -5.325,-24.386 -13.734,-34.236 -4.033,-4.727 -8.273,-9.278 -12.439,-13.892 -1.457,-1.61 -2.992,-1.806 -4.264,-0.629 -1.248,1.155 -1.145,2.682 0.299,4.314 4.661,5.267 9.549,10.348 13.932,15.836 7.163,8.975 10.63,19.406 10.917,30.87 0.095,3.815 0.01,7.634 0.034,11.451 0.031,5 3.635,8.728 8.429,8.752 4.879,0.024 8.526,-3.706 8.572,-8.789 C 0.018,5.928 0,3.53 0,0"
                   style="fill:#274a6e;fill-opacity:1;fill-rule:evenodd;stroke:none"
                   id="path228" />
              </g>
              <g
                 transform="translate(240.1969,442.688)"
                 id="g234">
                <path
                   d="m 0,0 c 1.974,28.975 23.077,52.918 50.25,59.556 8.242,2.013 16.568,2.478 24.972,1.293 1.99,-0.279 2.985,-1.465 2.751,-3.127 C 77.752,56.168 76.531,55.284 74.556,55.533 66.741,56.508 59.008,56.164 51.362,54.246 27.221,48.191 8.928,27.727 5.734,3.198 5.538,1.687 5.433,0.162 5.334,-1.357 5.19,-3.578 4.124,-4.794 2.369,-4.676 0.635,-4.559 -0.299,-3.163 -0.105,-0.975 -0.077,-0.649 -0.034,-0.326 0,0"
                   style="fill:#274a6e;fill-opacity:1;fill-rule:evenodd;stroke:none"
                   id="path232" />
              </g>
              <g
                 transform="translate(361.1803,435.3679)"
                 id="g238">
                <path
                   d="m 0,0 c 0,-3.657 0.022,-6.274 -0.008,-8.892 -0.024,-2.075 -0.985,-3.21 -2.65,-3.236 -1.741,-0.028 -2.714,1.147 -2.749,3.293 -0.079,5.229 0.091,10.477 -0.293,15.684 -1.531,20.757 -17.282,38.933 -37.513,43.589 -4.492,1.033 -9.021,1.466 -13.623,1.335 -0.78,-0.022 -1.864,0.014 -2.289,0.489 -0.644,0.716 -1.149,1.849 -1.133,2.792 0.022,1.254 1.108,2.059 2.362,2.065 3.101,0.01 6.247,0.172 9.297,-0.265 21.62,-3.091 36.661,-14.798 44.996,-34.978 C -0.581,14.561 0.261,6.829 0,0"
                   style="fill:#274a6e;fill-opacity:1;fill-rule:evenodd;stroke:none"
                   id="path236" />
              </g>
              <g
                 transform="translate(306.5392,515.8225)"
                 id="g242">
                <path
                   d="m 0,0 c 21.568,-0.374 40.165,-8.137 55.537,-23.536 1.503,-1.507 1.651,-3.089 0.451,-4.29 -1.222,-1.224 -2.753,-1.099 -4.288,0.459 -10.338,10.49 -22.66,17.375 -37.1,20.372 -10.279,2.13 -20.561,2.031 -30.808,-0.283 -1.383,-0.311 -2.617,-0.291 -3.513,0.963 -1.141,1.598 -0.336,3.746 1.758,4.147 3.895,0.748 7.827,1.347 11.764,1.861 1.99,0.263 4.025,0.21 6.199,0.307"
                   style="fill:#274a6e;fill-opacity:1;fill-rule:evenodd;stroke:none"
                   id="path240" />
              </g>
              <g
                 transform="translate(271.5608,473.7201)"
                 id="g246">
                <path
                   d="m 0,0 c -0.643,-1.058 -0.997,-1.917 -1.586,-2.565 -6.895,-7.603 -11.248,-16.46 -12.464,-26.639 -0.608,-5.113 -0.726,-10.348 -0.436,-15.495 0.333,-5.949 -2.83,-9.843 -6.675,-13.53 -1.052,-1.011 -2.533,-0.878 -3.554,0.087 -0.985,0.934 -1.173,2.435 -0.294,3.56 0.941,1.197 1.977,2.326 3.034,3.424 1.362,1.414 1.96,3.059 1.967,5.02 0.014,4.74 -0.1,9.495 0.218,14.218 0.86,12.802 5.844,23.878 14.501,33.32 0.884,0.963 2.004,1.533 3.198,0.827 C -1.301,1.756 -0.769,0.845 0,0"
                   style="fill:#274a6e;fill-opacity:1;fill-rule:evenodd;stroke:none"
                   id="path244" />
              </g>
              <g
                 transform="translate(349.8976,428.59)"
                 id="g250">
                <path
                   d="m 0,0 c -0.409,-5.479 -0.781,-10.961 -1.248,-16.434 -0.162,-1.898 -1.392,-2.978 -2.907,-2.848 -1.642,0.141 -2.645,1.424 -2.405,3.416 1.103,9.062 1.072,18.162 0.698,27.246 -0.4,9.717 -4.389,17.961 -11.242,24.832 -0.348,0.346 -0.72,0.668 -1.058,1.022 -1.233,1.288 -1.337,2.787 -0.281,3.934 1.096,1.191 2.666,1.187 4.058,-0.073 3.379,-3.056 6.191,-6.578 8.428,-10.546 3.679,-6.528 5.603,-13.542 5.648,-21.048 0.016,-3.16 0.002,-6.319 0.002,-9.479 C -0.206,0.014 -0.101,0.008 0,0"
                   style="fill:#274a6e;fill-opacity:1;fill-rule:evenodd;stroke:none"
                   id="path248" />
              </g>
              <g
                 transform="translate(263.1667,439.565)"
                 id="g254">
                <path
                   d="m 0,0 c 0.447,19.454 15.621,37.141 34.914,40.662 0.75,0.136 1.5,0.3 2.257,0.336 1.564,0.079 2.694,-0.848 2.89,-2.276 0.199,-1.45 -0.6,-2.617 -2.131,-3.003 C 35.771,35.173 33.55,34.825 31.445,34.123 16.206,29.056 6.291,15.795 5.415,-0.568 5.39,-1.003 5.395,-1.442 5.346,-1.873 5.17,-3.491 4.033,-4.541 2.559,-4.47 1.074,-4.399 0.065,-3.287 0.004,-1.632 -0.016,-1.088 0,-0.542 0,0"
                   style="fill:#274a6e;fill-opacity:1;fill-rule:evenodd;stroke:none"
                   id="path252" />
              </g>
              <g
                 transform="translate(247.0782,480.9311)"
                 id="g258">
                <path
                   d="m 0,0 c -1.003,0.829 -2.11,1.305 -2.324,2.041 -0.265,0.892 -0.13,2.32 0.447,2.971 3.131,3.552 6.272,7.128 9.747,10.332 6.22,5.728 13.362,10.126 21.198,13.32 0.894,0.366 2.342,0.24 3.129,-0.278 0.631,-0.416 1.07,-1.909 0.821,-2.67 C 32.733,24.851 31.704,24.005 30.797,23.605 24.727,20.933 18.948,17.727 13.967,13.362 10.006,9.893 6.473,5.939 2.718,2.229 1.952,1.47 1.048,0.851 0,0"
                   style="fill:#274a6e;fill-opacity:1;fill-rule:evenodd;stroke:none"
                   id="path256" />
              </g>
              <g
                 transform="translate(353.1016,483.9247)"
                 id="g262">
                <path
                   d="m 0,0 c 0.955,-0.603 1.796,-0.92 2.34,-1.513 6.206,-6.75 10.769,-14.486 13.75,-23.154 0.597,-1.735 -0.054,-3.204 -1.573,-3.75 -1.467,-0.526 -2.935,0.227 -3.55,1.995 -2.348,6.755 -5.734,12.927 -10.229,18.489 -0.89,1.102 -1.994,2.069 -2.684,3.281 -0.416,0.734 -0.53,1.938 -0.22,2.706 C -1.861,-1.191 -0.85,-0.72 0,0"
                   style="fill:#274a6e;fill-opacity:1;fill-rule:evenodd;stroke:none"
                   id="path260" />
              </g>
              <g
                 transform="translate(268.4459,424.7205)"
                 id="g266">
                <path
                   d="m 0,0 c -0.231,-3.805 -1.847,-8.251 -5.002,-12.049 -2.365,-2.844 -4.887,-5.56 -7.381,-8.297 -1.224,-1.343 -2.892,-1.461 -4.041,-0.391 -1.192,1.105 -1.196,2.626 0.067,4.058 2.089,2.364 4.213,4.701 6.333,7.043 2.837,3.141 4.565,6.822 4.629,11.044 0.037,2.465 1.439,3.659 2.855,3.643 C -0.734,5.03 0.162,3.651 0,0"
                   style="fill:#274a6e;fill-opacity:1;fill-rule:evenodd;stroke:none"
                   id="path264" />
              </g>
              <g
                 transform="translate(327.1606,500.7899)"
                 id="g270">
                <path
                   d="m 0,0 c 0.309,-0.093 0.837,-0.222 1.347,-0.405 6.096,-2.164 11.76,-5.149 16.975,-8.978 1.607,-1.179 2.026,-2.719 1.122,-4.06 -0.955,-1.418 -2.563,-1.578 -4.284,-0.336 -4.885,3.536 -10.142,6.348 -15.842,8.338 -1.705,0.597 -2.407,1.703 -2.166,3.182 C -2.64,-0.975 -1.519,-0.008 0,0"
                   style="fill:#274a6e;fill-opacity:1;fill-rule:evenodd;stroke:none"
                   id="path268" />
              </g>
              <g
                 transform="translate(277.0181,477.9113)"
                 id="g274">
                <path
                   d="m 0,0 c -1.525,0.022 -2.437,0.629 -2.858,1.828 -0.453,1.293 -0.059,2.456 1.096,3.113 3.39,1.93 6.792,3.852 10.288,5.585 1.782,0.884 3.754,1.408 5.671,2.002 1.677,0.524 3.061,-0.151 3.578,-1.608 C 18.287,9.484 17.585,7.967 15.941,7.466 10.653,5.85 5.706,3.558 1.139,0.433 0.754,0.168 0.245,0.089 0,0"
                   style="fill:#274a6e;fill-opacity:1;fill-rule:evenodd;stroke:none"
                   id="path272" />
              </g>
              <g
                 transform="translate(346.287,399.8373)"
                 id="g278">
                <path
                   d="m 0,0 c -0.147,-0.536 -0.33,-1.329 -0.585,-2.099 -1.07,-3.247 -2.115,-6.503 -3.262,-9.724 -0.666,-1.86 -2.15,-2.548 -3.704,-1.907 -1.436,0.593 -1.919,2.055 -1.322,3.855 1.193,3.607 2.354,7.223 3.549,10.828 0.51,1.543 1.706,2.332 3.057,2.087 C -0.918,2.797 0.039,1.626 0,0"
                   style="fill:#274a6e;fill-opacity:1;fill-rule:evenodd;stroke:none"
                   id="path276" />
              </g>
              <g
                 transform="translate(312.5365,480.5873)"
                 id="g282">
                <path
                   d="m 0,0 c 4.209,-0.595 8.552,-1.79 12.593,-3.914 1.279,-0.669 1.617,-2.154 1.03,-3.416 -0.579,-1.238 -1.92,-1.817 -3.297,-1.4 -3.791,1.147 -7.581,2.3 -11.372,3.453 -1.383,0.42 -2.196,1.632 -1.996,2.967 0.206,1.369 1.29,2.282 3.042,2.31"
                   style="fill:#274a6e;fill-opacity:1;fill-rule:evenodd;stroke:none"
                   id="path280" />
              </g>
              <g
                 transform="translate(338.5524,521.2069)"
                 id="g286">
                <path
                   d="m 0,0 c 0.309,-0.087 0.803,-0.158 1.24,-0.356 2.678,-1.21 5.364,-2.403 8.002,-3.697 1.699,-0.834 2.223,-2.327 1.504,-3.767 -0.717,-1.436 -2.228,-1.85 -3.93,-1.068 -2.619,1.206 -5.238,2.415 -7.856,3.625 -1.353,0.627 -2.018,1.665 -1.705,3.157 C -2.462,-0.758 -1.533,-0.101 0,0"
                   style="fill:#274a6e;fill-opacity:1;fill-rule:evenodd;stroke:none"
                   id="path284" />
              </g>
            </g>
          </g>
        </g>
        <g
           id="g292">
          <g
             id="g294" />
          <g
             id="g306">
            <g
               clip-path="url(#clipPath298)"
               id="g304">
              <g
                 transform="translate(415.8112,426.3275)"
                 id="g302">
                <path
                   d="m 0,0 c -0.018,0.156 -0.047,0.306 -0.071,0.46 -0.061,0.372 -0.131,0.739 -0.222,1.1 -0.039,0.156 -0.077,0.311 -0.122,0.465 -0.113,0.394 -0.247,0.78 -0.396,1.16 -0.037,0.092 -0.065,0.187 -0.103,0.278 -0.205,0.485 -0.435,0.957 -0.694,1.412 -0.01,0.019 -0.024,0.038 -0.037,0.057 -0.246,0.429 -0.519,0.84 -0.813,1.237 -0.054,0.076 -0.113,0.149 -0.17,0.224 -0.275,0.357 -0.566,0.7 -0.873,1.027 -0.049,0.053 -0.098,0.106 -0.148,0.158 -0.746,0.77 -1.584,1.452 -2.5,2.032 0,0 -0.004,0.003 -0.006,0.004 V 9.613 c -2.14,1.351 -4.687,2.144 -7.428,2.144 h -191.696 c -7.557,0 -13.685,-5.971 -13.685,-13.338 v -19.844 -12.428 -88.545 c 0,-1.503 0.267,-2.941 0.736,-4.288 0.453,-1.299 1.106,-2.502 1.921,-3.584 0.025,-0.035 0.049,-0.065 0.075,-0.097 0.795,-1.038 1.74,-1.956 2.808,-2.729 0.062,-0.047 0.123,-0.093 0.186,-0.138 0.522,-0.364 1.066,-0.694 1.638,-0.985 0.069,-0.034 0.138,-0.064 0.206,-0.097 0.534,-0.261 1.085,-0.487 1.651,-0.677 0.079,-0.027 0.154,-0.059 0.235,-0.083 0.596,-0.19 1.213,-0.334 1.842,-0.441 0.136,-0.024 0.271,-0.043 0.407,-0.061 0.649,-0.093 1.307,-0.156 1.98,-0.156 h 191.696 c 7.561,0 13.688,5.969 13.688,13.336 v 88.545 12.428 19.844 C 0.105,-1.045 0.063,-0.519 0,0"
                   style="fill:#c1c1c1;fill-opacity:1;fill-rule:nonzero;stroke:none"
                   id="path300" />
              </g>
            </g>
          </g>
        </g>
        <g
           id="g308"
           transform="translate(397.0505,295.772)">
          <path
             d="m 0,0 c 7.561,0 13.688,5.969 13.688,13.336 v 120.817 c 0,7.366 -6.127,13.338 -13.688,13.338 h -191.696 c -7.557,0 -13.686,-5.972 -13.686,-13.338 V 13.336 C -205.382,5.969 -199.253,0 -191.696,0 Z"
             style="fill:#f99c1c;fill-opacity:1;fill-rule:nonzero;stroke:none"
             id="path310" />
        </g>
        <g
           id="g312"
           transform="translate(379.9102,438.0845)">
          <path
             d="m 0,0 h -170.414 c -7.556,0 -13.685,-5.971 -13.685,-13.338 v -120.817 c 0,-1.256 0.19,-2.466 0.524,-3.619 C -184.396,-138.983 0.979,0.825 0,0"
             style="fill:#f8b051;fill-opacity:1;fill-rule:nonzero;stroke:none"
             id="path314" />
        </g>
        <g
           id="g316">
          <g
             id="g318" />
          <g
             id="g330">
            <g
               clip-path="url(#clipPath322)"
               id="g328">
              <g
                 transform="translate(404.478,441.1195)"
                 id="g326">
                <path
                   d="m 0,0 c 0.469,-1.348 0.736,-2.788 0.736,-4.291 v -120.817 c 0,-7.367 -6.127,-13.336 -13.687,-13.336 h -191.697 c -2.739,0 -5.285,0.793 -7.425,2.144 1.835,-5.259 6.934,-9.047 12.949,-9.047 H -7.427 c 7.56,0 13.687,5.968 13.687,13.335 V -11.195 C 6.26,-6.498 3.764,-2.377 0,0"
                   style="fill:#faa31c;fill-opacity:1;fill-rule:nonzero;stroke:none"
                   id="path324" />
              </g>
            </g>
          </g>
        </g>
        <g
           id="g332"
           transform="translate(266.3221,356.4062)">
          <path
             d="m 0,0 c 1.481,0 2.676,1.167 2.676,2.607 v 23.607 c 0,1.438 -1.195,2.605 -2.676,2.605 h -37.458 c -1.477,0 -2.676,-1.167 -2.676,-2.605 V 2.607 c 0,-1.44 1.199,-2.607 2.676,-2.607 z"
             style="fill:#fce894;fill-opacity:1;fill-rule:nonzero;stroke:none"
             id="path334" />
        </g>
        <g
           id="g336">
          <g
             id="g338" />
          <g
             id="g348">
            <g
               clip-path="url(#clipPath342)"
               id="g346">
              <path
                 d="M 410.738,410.08 H 191.669 v -12.427 h 219.069 z"
                 style="fill:#9f6527;fill-opacity:1;fill-rule:nonzero;stroke:none"
                 id="path344" />
            </g>
          </g>
        </g>
        <g
           id="g350">
          <g
             id="g352" />
          <g
             id="g364">
            <g
               clip-path="url(#clipPath356)"
               id="g362">
              <g
                 transform="translate(333.8719,322.435)"
                 id="g360">
                <path
                   d="m 0,0 c 0,-1.946 1.578,-3.523 3.524,-3.523 h 47.565 c 1.946,0 3.524,1.577 3.524,3.523 0,1.946 -1.578,3.524 -3.524,3.524 H 3.524 C 1.578,3.524 0,1.946 0,0"
                   style="fill:#faa31c;fill-opacity:1;fill-rule:nonzero;stroke:none"
                   id="path358" />
              </g>
            </g>
          </g>
        </g>
        <g
           id="g366"
           transform="translate(314.541,369.3373)">
          <path
             d="m 0,0 c 0,-2.684 2.176,-4.861 4.858,-4.861 h 65.606 c 2.685,0 4.861,2.177 4.861,4.861 0,2.684 -2.176,4.858 -4.861,4.858 H 4.858 C 2.176,4.858 0,2.684 0,0"
             style="fill:#f7e278;fill-opacity:1;fill-rule:nonzero;stroke:none"
             id="path368" />
        </g>
        <g
           id="g370">
          <g
             id="g372" />
          <g
             id="g384">
            <g
               clip-path="url(#clipPath376)"
               id="g382">
              <g
                 transform="translate(222.8159,340.8495)"
                 id="g380">
                <path
                   d="m 0,0 c 0,-1.946 1.578,-3.523 3.524,-3.523 h 19.379 c 1.946,0 3.523,1.577 3.523,3.523 0,1.946 -1.577,3.524 -3.523,3.524 H 3.524 C 1.578,3.524 0,1.946 0,0"
                   style="fill:#faa31c;fill-opacity:1;fill-rule:nonzero;stroke:none"
                   id="path378" />
              </g>
            </g>
          </g>
        </g>
        <g
           id="g386">
          <g
             id="g388" />
          <g
             id="g400">
            <g
               clip-path="url(#clipPath392)"
               id="g398">
              <g
                 transform="translate(222.8159,323.2341)"
                 id="g396">
                <path
                   d="m 0,0 c 0,-1.946 1.578,-3.524 3.524,-3.524 h 47.567 c 1.946,0 3.524,1.578 3.524,3.524 0,1.946 -1.578,3.523 -3.524,3.523 H 3.524 C 1.578,3.523 0,1.946 0,0"
                   style="fill:#faa31c;fill-opacity:1;fill-rule:nonzero;stroke:none"
                   id="path394" />
              </g>
            </g>
          </g>
        </g>
        <g
           id="g402">
          <g
             id="g404" />
          <g
             id="g416">
            <g
               clip-path="url(#clipPath408)"
               id="g414">
              <g
                 transform="translate(258.9312,340.8495)"
                 id="g412">
                <path
                   d="m 0,0 c 0,-1.946 1.578,-3.523 3.523,-3.523 h 19.38 c 1.946,0 3.523,1.577 3.523,3.523 0,1.946 -1.577,3.524 -3.523,3.524 H 3.523 C 1.578,3.524 0,1.946 0,0"
                   style="fill:#faa31c;fill-opacity:1;fill-rule:nonzero;stroke:none"
                   id="path410" />
              </g>
            </g>
          </g>
        </g>
        <g
           id="g418"
           transform="translate(529.3163,287.574)">
          <path
             d="m 0,0 c 0,0 11.467,-2.126 18.051,-5.431 6.575,-3.307 23.776,-62.188 24.595,-65.05 0.826,-2.858 -12.619,-4.664 -18.198,-5.987 -5.58,-1.323 -9.073,5.73 -12.053,16.394 -2.977,10.668 -8.265,28.423 -8.265,28.423 z"
             style="fill:#152950;fill-opacity:1;fill-rule:nonzero;stroke:none"
             id="path420" />
        </g>
        <g
           id="g422"
           transform="translate(501.9089,299.6858)">
          <path
             d="m 0,0 c 0.273,-3.691 1.974,-9.011 1.974,-9.011 -0.542,-0.603 -3.564,-12.387 -9.593,-12.286 -5.767,0.093 -9.95,11.657 -10.516,12.286 0.198,0.518 0.416,1.137 0.629,1.841 0.21,0.663 0.408,1.385 0.594,2.154 0.373,1.61 0.672,3.428 0.795,5.437 0.281,4.597 -0.457,8.475 -1.286,11.288 -0.241,0.82 -0.496,1.542 -0.732,2.169 H 1.974 C 1.645,12.988 1.295,11.92 0.973,10.678 0.415,8.499 -0.057,5.807 -0.083,2.731 -0.095,1.849 -0.067,0.935 0,0"
             style="fill:#ee9b9c;fill-opacity:1;fill-rule:nonzero;stroke:none"
             id="path424" />
        </g>
        <g
           id="g426"
           transform="translate(502.8818,310.3636)">
          <path
             d="m 0,0 c -0.568,-2.18 -0.793,-9.225 -0.825,-12.298 -4.652,-2.951 -10.874,-6.731 -17.066,-3.396 0.383,1.612 0.678,3.43 0.805,5.439 0.284,4.591 -0.461,8.475 -1.294,11.286 0.554,0.895 1.038,1.641 1.383,2.169 0.368,0.55 0.583,0.866 0.583,0.866 L -12.923,3.2 Z"
             style="fill:#ec8783;fill-opacity:1;fill-rule:nonzero;stroke:none"
             id="path428" />
        </g>
        <g
           id="g430"
           transform="translate(519.6621,311.0109)">
          <path
             d="m 0,0 c -15.016,-16.052 -40.389,-12.427 -50.745,5.696 -8.394,14.691 -13.221,48.979 1.306,57.669 12.832,7.674 54.463,1.276 64.397,-9.907 C 26.198,40.806 11.56,12.359 0,0"
             style="fill:#f3c6bb;fill-opacity:1;fill-rule:nonzero;stroke:none"
             id="path432" />
        </g>
        <g
           id="g434"
           transform="translate(462.513,352.1848)">
          <path
             d="m 0,0 c -0.631,2.221 -6.857,3.786 -11.024,1.693 -4.166,-2.089 -1.96,-14.401 1.805,-16.602 3.135,-1.833 6.537,-2.547 8.022,-1.234 C 0.283,-14.828 1.163,-4.118 0,0"
             style="fill:#f3c6bb;fill-opacity:1;fill-rule:nonzero;stroke:none"
             id="path436" />
        </g>
        <g
           id="g438"
           transform="translate(534.5126,341.1126)">
          <path
             d="M 0,0 C 1.266,1.928 7.676,1.549 11.02,-1.699 14.371,-4.941 8.564,-16.02 4.312,-16.987 0.773,-17.796 -2.684,-17.454 -3.705,-15.757 -4.729,-14.06 -2.346,-3.576 0,0"
             style="fill:#f3c6bb;fill-opacity:1;fill-rule:nonzero;stroke:none"
             id="path440" />
        </g>
        <g
           id="g442"
           transform="translate(493.0395,330.7038)">
          <path
             d="m 0,0 c -0.2,-0.002 -0.398,0.053 -0.581,0.162 -1.658,1.007 -4.397,3.877 -2.884,7.542 0.427,1.03 1.175,1.782 2.168,2.175 1.479,0.584 3.19,0.263 4.291,-0.071 0.105,0.326 0.238,0.757 0.4,1.331 0.166,0.595 0.787,0.943 1.38,0.777 0.594,-0.168 0.942,-0.785 0.774,-1.38 C 5.041,8.726 4.774,8.133 4.62,7.848 4.343,7.33 3.71,7.12 3.171,7.363 2.557,7.64 0.696,8.259 -0.479,7.796 -0.91,7.624 -1.199,7.324 -1.396,6.849 -2.553,4.049 0.457,2.152 0.585,2.073 1.11,1.75 1.274,1.06 0.951,0.536 0.74,0.19 0.376,0 0,0"
             style="fill:#6c351f;fill-opacity:1;fill-rule:nonzero;stroke:none"
             id="path444" />
        </g>
        <g
           id="g446"
           transform="translate(475.6968,354.4482)">
          <path
             d="M 0,0 C -0.261,0 -0.53,0.063 -0.777,0.194 -1.604,0.627 -1.921,1.646 -1.493,2.472 -0.441,4.474 2.967,7.779 8.396,5.926 9.278,5.625 9.751,4.664 9.45,3.784 9.147,2.898 8.192,2.429 7.306,2.731 3.228,4.114 1.566,1.038 1.499,0.904 1.195,0.33 0.611,0 0,0"
             style="fill:#6c351f;fill-opacity:1;fill-rule:nonzero;stroke:none"
             id="path448" />
        </g>
        <g
           id="g450"
           transform="translate(525.0869,347.4354)">
          <path
             d="m 0,0 c -0.799,0 -1.505,0.57 -1.657,1.38 -0.074,0.382 -0.908,3.689 -4.985,3.497 -0.868,0.008 -1.704,0.718 -1.73,1.65 -0.02,0.933 0.716,1.705 1.647,1.728 0.091,0 0.18,0.002 0.269,0.002 5.53,0 7.73,-4.08 8.121,-6.271 C 1.831,1.068 1.218,0.19 0.299,0.026 0.198,0.012 0.099,0 0,0"
             style="fill:#6c351f;fill-opacity:1;fill-rule:nonzero;stroke:none"
             id="path452" />
        </g>
        <g
           id="g454"
           transform="translate(489.5401,319.672)">
          <path
             d="M 0,0 C 0.564,0.566 1.466,0.662 2.146,0.196 2.47,-0.02 5.397,-1.77 8.145,1.25 c 0.619,0.607 1.712,0.696 2.389,0.055 0.674,-0.646 0.7,-1.711 0.059,-2.385 -0.065,-0.065 -0.127,-0.129 -0.19,-0.192 -3.91,-3.91 -8.35,-2.581 -10.176,-1.309 -0.767,0.532 -0.953,1.586 -0.421,2.353 C -0.131,-0.147 -0.071,-0.069 0,0"
             style="fill:#6c351f;fill-opacity:1;fill-rule:nonzero;stroke:none"
             id="path456" />
        </g>
        <g
           id="g458"
           transform="translate(481.9409,348.3356)">
          <path
             d="m 0,0 c -0.326,-2.116 -1.404,-3.708 -2.405,-3.554 -1.007,0.158 -1.557,1.998 -1.232,4.112 0.33,2.12 1.402,3.712 2.411,3.554 C -0.225,3.958 0.326,2.12 0,0"
             style="fill:#6c351f;fill-opacity:1;fill-rule:nonzero;stroke:none"
             id="path460" />
        </g>
        <g
           id="g462"
           transform="translate(519.8926,342.5001)">
          <path
             d="m 0,0 c -0.332,-2.114 -1.404,-3.705 -2.407,-3.552 -1.001,0.154 -1.551,1.995 -1.226,4.114 0.324,2.114 1.4,3.704 2.403,3.546 C -0.225,3.959 0.324,2.116 0,0"
             style="fill:#6c351f;fill-opacity:1;fill-rule:nonzero;stroke:none"
             id="path464" />
        </g>
        <g
           id="g466"
           transform="translate(456.7989,347.7206)">
          <path
             d="m 0,0 c 0.271,-2.52 -0.37,-4.648 -1.432,-4.763 -1.06,-0.12 -0.495,2.081 -0.767,4.595 -0.275,2.518 -1.282,4.4 -0.218,4.517 C -1.357,4.464 -0.277,2.514 0,0"
             style="fill:#6c351f;fill-opacity:1;fill-rule:nonzero;stroke:none"
             id="path468" />
        </g>
        <g
           id="g470"
           transform="translate(538.2102,335.2002)">
          <path
             d="M 0,0 C -1.011,-2.316 -1.042,-4.547 -0.065,-4.976 0.914,-5.405 1.034,-3.133 2.049,-0.819 3.062,1.501 4.591,2.99 3.615,3.418 2.635,3.851 1.021,2.314 0,0"
             style="fill:#6c351f;fill-opacity:1;fill-rule:nonzero;stroke:none"
             id="path472" />
        </g>
        <g
           id="g474"
           transform="translate(481.9105,334.7473)">
          <path
             d="m 0,0 c -0.192,-1.248 -3.586,-1.756 -7.593,-1.139 -3.997,0.611 -7.092,2.122 -6.898,3.368 0.187,1.242 3.589,1.751 7.594,1.139 C -2.898,2.749 0.196,1.244 0,0"
             style="fill:#f2728f;fill-opacity:1;fill-rule:nonzero;stroke:none"
             id="path476" />
        </g>
        <g
           id="g478"
           transform="translate(526.6525,327.8639)">
          <path
             d="m 0,0 c -0.192,-1.246 -3.592,-1.752 -7.593,-1.137 -4.003,0.617 -7.09,2.124 -6.898,3.366 0.191,1.244 3.589,1.756 7.585,1.141 C -2.896,2.753 0.19,1.246 0,0"
             style="fill:#f2728f;fill-opacity:1;fill-rule:nonzero;stroke:none"
             id="path480" />
        </g>
        <g
           id="g482"
           transform="translate(535.5079,194.7102)">
          <path
             d="m 0,0 c 0.455,-15.429 1.448,-32.745 3.479,-47.078 h -90.265 c 3.024,21.831 0.395,51.055 0.913,59.402 0.455,7.727 -1.224,23.116 -1.948,38.278 -0.747,15.949 -0.435,31.669 4.557,37.986 4.866,6.131 9.547,3.582 18.04,6.005 5.739,1.647 13.081,5.658 18.654,-0.56 1.165,-1.299 4.636,-6.922 5.352,-8.801 0.663,-1.739 4.348,10.957 6.213,10.874 7.395,-0.332 11.392,0.166 16.55,-1.056 C 15.7,93.434 2.423,73.674 0.103,38.174 -0.249,32.788 -0.497,17.628 0,0"
             style="fill:#152950;fill-opacity:1;fill-rule:nonzero;stroke:none"
             id="path484" />
        </g>
        <g
           id="g486"
           transform="translate(448.7223,147.6321)">
          <path
             d="m 0,0 c 3.024,21.831 0.394,51.055 0.912,59.402 0.455,7.727 -1.223,23.116 -1.948,38.278 3.665,6.131 13.289,-22.155 13.289,-22.155 l 19.851,-15.19 c 0,0 9.839,-10.874 12.428,-12.428 2.589,-1.553 14.13,-5.056 18.123,-5.695 12.945,-2.072 9.838,-3.107 12.427,-1.554 2.589,1.554 9.839,16.052 9.839,16.052 l 1.865,-9.632 C 87.241,31.649 88.234,14.333 90.265,0 Z"
             style="fill:#152950;fill-opacity:1;fill-rule:nonzero;stroke:none"
             id="path488" />
        </g>
        <g
           id="g490"
           transform="translate(485.339,297.4184)">
          <path
             d="m 0,0 4.493,-9.67 -10.017,-7.598 -5.874,9.671 z"
             style="fill:#2f50a3;fill-opacity:1;fill-rule:nonzero;stroke:none"
             id="path492" />
        </g>
        <g
           id="g494"
           transform="translate(502.2629,297.7643)">
          <path
             d="m 0,0 -4.488,-9.671 10.016,-7.599 5.874,9.673 z"
             style="fill:#2f50a3;fill-opacity:1;fill-rule:nonzero;stroke:none"
             id="path496" />
        </g>
        <g
           id="g498"
           transform="translate(459.1472,287.574)">
          <path
             d="m 0,0 c 0,0 -11.471,-2.126 -18.055,-5.431 -6.577,-3.307 -20.576,-50.941 -21.404,-53.804 -0.821,-2.862 9.62,-7.039 15.195,-8.359 5.586,-1.321 8.888,-3.144 11.865,7.52 2.977,10.668 8.269,28.423 8.269,28.423 z"
             style="fill:#152950;fill-opacity:1;fill-rule:nonzero;stroke:none"
             id="path500" />
        </g>
        <g
           id="g502"
           transform="translate(423.8552,246.4122)">
          <path
             d="m 0,0 23.795,-15.821 -2.306,-7.828 -25.174,13.058 z"
             style="fill:#152950;fill-opacity:1;fill-rule:nonzero;stroke:none"
             id="path504" />
        </g>
        <g
           id="g506"
           transform="translate(442.2093,219.3527)">
          <path
             d="m 0,0 c 0,0 -7.431,-17.943 -15.7,-19.252 -15.243,-2.403 -51.191,37.954 -51.191,37.954 -0.857,2.296 4.018,12.373 2.81,14.098 -3.881,5.544 24.054,-22.691 40.561,-24.509 1.968,-0.217 -0.233,-1.281 0.31,-0.787 0.766,0.696 15.867,-6.837 23.182,-7.366 z"
             style="fill:#f3c6bb;fill-opacity:1;fill-rule:nonzero;stroke:none"
             id="path508" />
        </g>
        <g
           id="g510"
           transform="translate(543.8939,215.6369)">
          <path
             d="m 0,0 c -8.341,-10.475 -15.312,-22.071 -22.43,-33.546 -2.556,0.548 -5.922,1.284 -7.287,1.646 -2.329,0.627 -11.712,0.498 -15.136,2.5 -3.427,2.005 -6.398,1.55 -6.175,-0.295 0.214,-1.845 4.589,-5.512 7.225,-5.781 2.637,-0.275 3.997,-1.072 1.877,-2.077 -0.287,-0.132 -0.704,-0.334 -1.167,-0.568 l -0.083,0.04 c -15.68,-6.214 -15.247,-3.803 -17.472,-4.412 -2.229,-0.617 -2.911,-3.171 1.177,-5.085 4.09,-1.911 11.734,-0.608 11.734,-0.608 -6.859,-3.336 -11.793,-2.052 -13.184,-2.836 -1.386,-0.781 -1.313,-2.476 1.893,-4.814 3.208,-2.331 5.815,-1.651 5.815,-1.651 0,0 -0.21,-2.156 3.92,-3.527 2.001,-0.66 8.447,1.492 8.447,1.492 0,0 -0.914,-2.734 3.398,-2.981 2.439,-0.142 6.792,2.522 10.117,4.864 0.009,-0.004 0.013,-0.01 0.019,-0.014 11.333,5.838 50.346,36.429 56.022,50.778 C 31.793,0.908 23.924,8.9 23.407,14.596 23.368,15.014 0.105,3.204 7.872,7.864"
             style="fill:#f3c6bb;fill-opacity:1;fill-rule:nonzero;stroke:none"
             id="path512" />
        </g>
        <g
           id="g514"
           transform="translate(567.3005,230.2327)">
          <path
             d="m 0,0 c -0.028,0.314 -16.758,1.851 -20.023,0.518 l -3.384,-15.114 c -8.341,-10.475 -15.311,-22.071 -22.429,-33.546 -0.164,0.034 -0.352,0.077 -0.52,0.113 1.076,-6.062 3.489,-11.729 6.436,-17.241 16.032,11.489 40.79,32.589 45.223,43.799 C 8.386,-13.688 0.518,-5.696 0,0"
             style="fill:#152950;fill-opacity:1;fill-rule:nonzero;stroke:none"
             id="path516" />
        </g>
        <g
           id="g518">
          <g
             id="g520" />
          <g
             id="g540">
            <g
               clip-path="url(#clipPath524)"
               id="g538">
              <g
                 transform="translate(496.1403,182.1757)"
                 id="g528">
                <path
                   d="M 0,0 C 0.463,0.234 0.88,0.437 1.167,0.568 3.287,1.574 1.927,2.371 -0.71,2.646 -1.45,2.72 -2.326,3.081 -3.21,3.576 -2.971,2.577 -1.715,1.169 -0.186,0 -0.15,0.014 -0.12,0.026 -0.083,0.04 Z"
                   style="fill:#f3c6bb;fill-opacity:1;fill-rule:nonzero;stroke:none"
                   id="path526" />
              </g>
              <g
                 transform="translate(481.7487,172.0803)"
                 id="g532">
                <path
                   d="M 0,0 C -0.409,-0.661 -0.37,-1.515 0.372,-2.391 2.718,-2.243 5.916,-1.832 9.747,0.03 9.747,0.03 4.175,-0.914 0,0"
                   style="fill:#f3c6bb;fill-opacity:1;fill-rule:nonzero;stroke:none"
                   id="path530" />
              </g>
              <g
                 transform="translate(567.3005,230.2327)"
                 id="g536">
                <path
                   d="m 0,0 c -0.008,0.089 2.787,-11.4 0.643,-16.811 -5.675,-14.348 -44.689,-44.94 -56.022,-50.777 -0.006,0.004 -0.01,0.01 -0.018,0.014 -3.326,-2.342 -7.679,-5.006 -10.118,-4.865 -4.312,0.247 -3.398,2.982 -3.398,2.982 0,0 -6.446,-2.152 -8.447,-1.493 -4.13,1.371 -3.92,3.528 -3.92,3.528 0,0 -1.636,-0.401 -3.9,0.568 -0.044,-0.894 0.729,-2.108 2.745,-3.578 3.208,-2.33 5.815,-1.651 5.815,-1.651 0,0 -0.21,-2.156 3.92,-3.527 2.001,-0.66 8.447,1.492 8.447,1.492 0,0 -0.914,-2.734 3.398,-2.981 2.44,-0.142 6.792,2.522 10.118,4.865 0.008,-0.004 0.012,-0.01 0.018,-0.014 11.333,5.837 50.347,36.428 56.022,50.777 C 8.386,-13.688 0.518,-5.696 0,0"
                   style="fill:#f3c6bb;fill-opacity:1;fill-rule:nonzero;stroke:none"
                   id="path534" />
              </g>
            </g>
          </g>
        </g>
        <g
           id="g542"
           transform="translate(376.0874,238.4104)">
          <path
             d="m 0,0 9.442,10.039 c 0,0 -3.085,7.753 -3.855,10.038 -0.763,2.288 -6.04,10.041 -6.265,13.999 -0.224,3.963 -2.237,6.192 -3.655,4.986 -1.419,-1.197 -2.065,-6.871 -0.833,-9.215 1.226,-2.357 1.315,-3.924 -0.692,-2.713 -0.269,0.166 -0.667,0.403 -1.122,0.658 l -0.012,0.091 c -13.836,9.648 -11.584,10.617 -13.324,12.134 -1.743,1.523 -4.252,0.68 -3.586,-3.787 0.661,-4.466 5.973,-10.121 5.973,-10.121 -6.574,3.88 -8.224,8.697 -9.644,9.426 -1.42,0.724 -2.796,-0.269 -2.97,-4.236 -0.178,-3.958 1.829,-5.756 1.829,-5.756 0,0 -1.914,-1.02 -0.773,-5.223 0.55,-2.031 5.909,-6.214 5.909,-6.214 0,0 -2.794,-0.748 -0.617,-4.476 C -22.363,6.483 -13.01,3.232 -10.091,2.276 -5.935,0.866 0,0 0,0"
             style="fill:#f3c6bb;fill-opacity:1;fill-rule:nonzero;stroke:none"
             id="path544" />
        </g>
        <g
           id="g546"
           transform="translate(390.7277,258.7122)">
          <path
             d="m 0,0 c 0,-6.005 -6.958,-10.874 -15.534,-10.874 -8.578,0 -15.535,4.869 -15.535,10.874 0,6.005 6.957,10.874 15.535,10.874 C -6.958,10.874 0,6.005 0,0"
             style="fill:#ec8783;fill-opacity:1;fill-rule:nonzero;stroke:none"
             id="path548" />
        </g>
        <g
           id="g550"
           transform="translate(382.5076,265.9595)">
          <path
             d="m 0,0 c -1.402,-1.313 -3.605,-1.24 -4.907,0.17 -1.315,1.396 -1.238,3.6 0.166,4.901 1.401,1.315 3.604,1.242 4.907,-0.15 C 1.481,3.505 1.412,1.313 0,0 m 10.486,20.708 c -8.213,8.789 -22.016,9.26 -30.81,1.032 -8.791,-8.222 -9.26,-22.019 -1.03,-30.814 8.21,-8.801 22.019,-9.258 30.808,-1.043 8.803,8.226 9.264,22.029 1.032,30.825"
             style="fill:#e7e7e9;fill-opacity:1;fill-rule:nonzero;stroke:none"
             id="path552" />
        </g>
        <g
           id="g554"
           transform="translate(338.4108,309.0954)">
          <path
             d="m 0,0 -0.894,-6.27 6.436,0.344 -0.898,-6.269 6.438,0.342 -0.898,-6.268 6.436,0.344 -0.922,-6.451 12.589,-13.469 10.486,9.8 -39.631,42.398 -11.094,1.585 0.611,-11.391 4.721,-5.049 z"
             style="fill:#e7e7e9;fill-opacity:1;fill-rule:nonzero;stroke:none"
             id="path556" />
        </g>
        <g
           id="g558"
           transform="translate(382.5076,265.9595)">
          <path
             d="m 0,0 c -1.402,-1.313 -3.605,-1.24 -4.907,0.17 -1.315,1.396 -1.238,3.6 0.166,4.901 1.401,1.315 3.604,1.242 4.907,-0.15 C 1.481,3.505 1.412,1.313 0,0 m 7.002,17.44 c -6.411,6.879 -17.188,7.247 -24.059,0.815 -6.882,-6.428 -7.246,-17.193 -0.82,-24.074 6.433,-6.871 17.201,-7.235 24.078,-0.805 6.87,6.412 7.236,17.195 0.801,24.064"
             style="fill:#d3d3d5;fill-opacity:1;fill-rule:nonzero;stroke:none"
             id="path560" />
        </g>
        <g
           id="g562"
           transform="translate(382.5076,265.9595)">
          <path
             d="m 0,0 c -1.402,-1.313 -3.605,-1.24 -4.907,0.17 -1.315,1.396 -1.238,3.6 0.166,4.901 1.401,1.315 3.604,1.242 4.907,-0.15 C 1.481,3.505 1.412,1.313 0,0 M 1.606,6.262 C -0.445,8.461 -3.9,8.57 -6.093,6.517 -8.293,4.46 -8.402,1.022 -6.349,-1.187 c 2.059,-2.201 5.507,-2.314 7.708,-0.255 2.197,2.055 2.31,5.51 0.247,7.704"
             style="fill:#e7e7e9;fill-opacity:1;fill-rule:nonzero;stroke:none"
             id="path564" />
        </g>
      </g>
    </g>
    <g
       id="g566">
      <g
         id="g568">
        <g
           id="g574">
          <g
             id="g576">
            <path
               d="m 350.021,245.21 c -4.957,0 -7.967,-4.023 -6.715,-8.983 v 0 l 20.516,-81.374 c 1.25,-4.962 6.289,-8.983 11.244,-8.983 v 0 h 123.68 c 4.963,0 7.968,4.021 6.719,8.983 v 0 l -20.518,81.374 c -1.25,4.96 -6.285,8.983 -11.246,8.983 v 0 z"
               style="fill:url(#linearGradient586);stroke:none"
               id="path588" />
          </g>
        </g>
      </g>
    </g>
    <g
       id="g590">
      <g
         id="g592"
         clip-path="url(#clipPath596)">
        <g
           id="g598">
          <g
             id="g600" />
          <g
             id="g662">
            <g
               clip-path="url(#clipPath604)"
               opacity="0.600006"
               id="g660">
              <g
                 id="g658">
                <g
                   clip-path="url(#clipPath608)"
                   id="g656">
                  <g
                     id="g654">
                    <g
                       id="g646" />
                    <g
                       mask="url(#mask624)"
                       id="g652">
                      <g
                         id="g650">
                        <path
                           d="m 376.717,150.933 c 13.123,12.185 24.866,25.741 36.705,39.161 11.431,12.954 23.324,25.264 35.759,37.248 4.497,4.333 9.096,8.702 13.692,13.144 H 357.677 c -4.511,0 -7.249,-3.661 -6.111,-8.174 l 18.67,-74.042 c 0.817,-3.241 3.414,-6.016 6.481,-7.337"
                           style="fill:url(#linearGradient644);stroke:none"
                           id="path648" />
                      </g>
                    </g>
                  </g>
                </g>
              </g>
            </g>
          </g>
        </g>
        <g
           id="g664">
          <g
             id="g666" />
          <g
             id="g698">
            <g
               clip-path="url(#clipPath670)"
               id="g696">
              <g
                 id="g694">
                <g
                   id="g692">
                  <g
                     id="g690">
                    <g
                       id="g688">
                      <path
                         d="m 505.465,154.853 -20.518,81.375 c -1.25,4.96 -6.285,8.983 -11.246,8.983 h -10.357 c 4.962,0 9.996,-4.023 11.247,-8.983 l 20.518,-81.375 c 1.25,-4.962 -1.756,-8.983 -6.72,-8.983 h 10.357 c 4.963,0 7.969,4.021 6.719,8.983"
                         style="fill:url(#linearGradient684);stroke:none"
                         id="path686" />
                    </g>
                  </g>
                </g>
              </g>
            </g>
          </g>
        </g>
        <g
           id="g700"
           transform="translate(544.626,366.7178)">
          <path
             d="m 0,0 c -0.938,3.922 -3.734,5.21 -6.021,5.587 1.227,3.293 1.555,8.072 -2.373,13.788 -5.702,8.295 -33.142,20.711 -44.188,17.95 -4.723,-1.182 -4.644,-2.739 -3.012,-4.139 -9.516,0.053 -15.415,2.919 -23.914,-3.454 -8.285,-6.214 9.667,-4.835 9.667,-4.835 l -6.904,-4.142 c -6.903,-4.143 -13.809,-7.593 -13.119,-15.878 0.273,-3.273 2.593,-3.093 5.299,-1.685 -1.765,-8.251 -0.534,-15.559 -0.534,-15.559 l 0.597,-13.18 c 0.026,-0.493 0.249,-0.956 0.621,-1.278 l 1.643,-1.418 c 0.382,-0.332 0.978,-0.059 0.954,0.449 -0.158,4.248 0.215,12.565 5.247,24.22 0,0 10.13,20.263 32.238,3.681 16.08,-12.057 27.284,-3.703 27.284,-3.703 0,0 3.032,-5.099 5.556,-8.006 3.2,-3.686 2.822,-10.559 -2.225,-23.943 -0.153,-0.414 0.348,-0.766 0.674,-0.463 1.42,1.309 3.578,3.358 4.156,4.286 0.888,1.418 2.683,7.264 2.683,7.264 0,0 6.838,19.593 5.671,24.458"
             style="fill:#152950;fill-opacity:1;fill-rule:nonzero;stroke:none"
             id="path702" />
        </g>
        <g
           id="g704"
           transform="translate(65.655,447.2725)">
          <path
             d="m 0,0 c -5.413,0 -9.82,4.406 -9.82,9.822 0,5.415 4.407,9.822 9.82,9.822 5.417,0 9.822,-4.407 9.822,-9.822 C 9.822,4.406 5.417,0 0,0 m 49.16,8.12 v 4.62 l -7.836,0.75 c -0.124,1.437 -0.32,2.854 -0.591,4.245 l 7.405,2.766 -1.195,4.458 -7.921,-0.999 c -0.524,1.443 -1.129,2.848 -1.804,4.213 l 6.353,4.927 -2.308,4 -7.367,-3.359 c -0.805,1.14 -1.666,2.239 -2.581,3.289 l 5.18,6.282 -3.262,3.266 -6.56,-4.978 c -1.134,0.953 -2.318,1.852 -3.556,2.683 l 3.123,7.655 -3.998,2.312 -4.822,-6.767 c -1.23,0.57 -2.497,1.082 -3.791,1.532 l 1.379,8.229 -4.458,1.196 -3.268,-7.774 c -1.368,0.243 -2.755,0.418 -4.167,0.523 l -0.805,8.4 h -4.618 l -1.155,-8.427 c -1.448,-0.12 -2.876,-0.313 -4.278,-0.577 l -3.303,7.854 -4.462,-1.195 1.408,-8.387 c -1.262,-0.456 -2.494,-0.971 -3.694,-1.543 l -4.945,6.936 -4.001,-2.31 3.234,-7.926 c -1.179,-0.811 -2.314,-1.687 -3.402,-2.615 l -6.818,5.176 -3.267,-3.266 5.421,-6.573 c -0.866,-1.014 -1.683,-2.07 -2.448,-3.165 l -7.74,3.529 -2.308,-4 6.707,-5.202 c -0.629,-1.296 -1.189,-2.631 -1.681,-3.999 l -8.396,1.06 -1.198,-4.458 7.873,-2.94 c -0.251,-1.322 -0.439,-2.662 -0.558,-4.023 l -8.336,-0.8 V 8.12 l 8.267,-1.132 c 0.101,-1.485 0.281,-2.949 0.534,-4.386 l -7.65,-3.217 1.195,-4.462 8.085,1.358 c 0.457,-1.317 0.975,-2.602 1.553,-3.855 l -6.642,-4.735 2.306,-3.999 7.512,3.067 c 0.846,-1.262 1.76,-2.469 2.733,-3.628 l -4.877,-6.426 3.265,-3.267 6.155,5.079 c 1.07,-0.93 2.186,-1.806 3.347,-2.626 l -3.293,-7.22 3.999,-2.31 4.836,6.232 c 1.386,-0.684 2.816,-1.295 4.285,-1.823 l -0.98,-7.778 4.46,-1.194 2.719,7.279 c 1.468,-0.281 2.963,-0.481 4.48,-0.603 l 1.058,-7.699 H 2.31 l 0.736,7.675 c 1.469,0.105 2.915,0.289 4.335,0.544 l 2.69,-7.196 4.462,1.194 -0.963,7.616 c 1.509,0.524 2.984,1.119 4.408,1.805 l 4.694,-6.05 3.999,2.308 -3.171,6.953 c 1.209,0.834 2.366,1.732 3.479,2.685 l 5.902,-4.871 3.268,3.265 -4.65,6.124 c 1.03,1.202 2.003,2.456 2.891,3.771 l 7.12,-2.906 2.31,4.001 -6.269,4.467 c 0.617,1.311 1.165,2.66 1.647,4.042 l 7.617,-1.279 1.196,4.462 -7.189,3.023 c 0.275,1.521 0.469,3.072 0.57,4.647 z"
             style="fill:#d1d3eb;fill-opacity:1;fill-rule:nonzero;stroke:none"
             id="path706" />
        </g>
        <g
           id="g708"
           transform="translate(548.8191,408.0717)">
          <path
             d="m 0,0 c -8.695,0 -15.769,7.075 -15.769,15.769 0,8.694 7.074,15.769 15.769,15.769 8.694,0 15.769,-7.075 15.769,-15.769 C 15.769,7.075 8.694,0 0,0 m 31.985,14.661 v 3.005 l -5.099,0.49 c -0.081,0.934 -0.211,1.856 -0.385,2.761 l 4.818,1.798 -0.776,2.905 -5.154,-0.652 c -0.342,0.939 -0.734,1.853 -1.173,2.739 l 4.132,3.208 -1.503,2.601 -4.789,-2.184 c -0.526,0.742 -1.087,1.456 -1.681,2.14 l 3.369,4.085 -2.121,2.124 -4.268,-3.236 c -0.741,0.619 -1.511,1.205 -2.314,1.745 l 2.031,4.982 -2.602,1.501 -3.137,-4.401 c -0.801,0.372 -1.624,0.704 -2.465,0.997 l 0.898,5.354 -2.903,0.779 -2.126,-5.059 c -0.89,0.158 -1.794,0.273 -2.71,0.34 l -0.526,5.465 h -3.004 l -0.75,-5.481 C -3.196,42.588 -4.126,42.464 -5.036,42.29 l -2.151,5.11 -2.902,-0.777 0.914,-5.457 c -0.819,-0.296 -1.622,-0.631 -2.403,-1.003 l -3.216,4.51 -2.603,-1.501 2.104,-5.158 c -0.767,-0.525 -1.505,-1.096 -2.213,-1.7 l -4.438,3.367 -2.126,-2.124 3.528,-4.276 c -0.563,-0.661 -1.095,-1.349 -1.592,-2.061 l -5.037,2.296 -1.503,-2.601 4.365,-3.386 c -0.408,-0.844 -0.772,-1.711 -1.094,-2.601 l -5.463,0.692 -0.777,-2.905 5.12,-1.912 c -0.162,-0.859 -0.284,-1.731 -0.362,-2.617 l -5.423,-0.52 v -3.005 l 5.378,-0.737 c 0.067,-0.967 0.182,-1.917 0.348,-2.854 l -4.978,-2.093 0.777,-2.901 5.263,0.882 c 0.295,-0.858 0.633,-1.693 1.009,-2.508 l -4.322,-3.08 1.502,-2.604 4.887,1.995 c 0.549,-0.82 1.143,-1.606 1.776,-2.359 l -3.171,-4.183 2.124,-2.124 4.004,3.305 c 0.696,-0.606 1.422,-1.177 2.179,-1.707 l -2.142,-4.698 2.601,-1.503 3.145,4.053 c 0.902,-0.445 1.833,-0.841 2.79,-1.185 l -0.64,-5.061 2.903,-0.779 1.77,4.74 c 0.954,-0.185 1.928,-0.316 2.914,-0.393 l 0.688,-5.012 h 3.004 l 0.481,4.996 c 0.955,0.069 1.896,0.186 2.82,0.352 l 1.75,-4.683 2.902,0.779 -0.627,4.956 c 0.983,0.34 1.942,0.728 2.868,1.173 l 3.054,-3.936 2.604,1.503 -2.065,4.524 c 0.786,0.542 1.541,1.125 2.265,1.744 l 3.841,-3.168 2.124,2.124 -3.024,3.985 c 0.672,0.781 1.303,1.598 1.881,2.453 l 4.632,-1.889 1.503,2.603 -4.078,2.907 c 0.403,0.852 0.759,1.729 1.07,2.63 l 4.958,-0.832 0.777,2.901 -4.677,1.968 c 0.178,0.989 0.303,2 0.37,3.024 z"
             style="fill:#d1d3eb;fill-opacity:1;fill-rule:nonzero;stroke:none"
             id="path710" />
        </g>
        <g
           id="g712">
          <g
             id="g714" />
          <g
             id="g726">
            <g
               clip-path="url(#clipPath718)"
               opacity="0.5"
               id="g724">
              <g
                 transform="translate(248.9148,597.3915)"
                 id="g722">
                <path
                   d="m 0,0 c 0,0 -5.615,0.701 -21.756,2.807 -16.141,2.104 -47.018,11.93 -47.018,11.93 h -1.401 -2.106 -1.405 c 0,0 -30.875,-9.826 -47.016,-11.93 C -136.843,0.701 -142.456,0 -142.456,0 c 0,0 -1.404,-2.107 -1.404,-16.141 0,-14.035 0,-75.789 23.158,-95.438 19.25,-16.335 40.425,-29.264 47.028,-33.166 l -0.012,-1.221 h 2.105 0.704 2.103 l -0.012,1.221 c 6.604,3.902 27.78,16.831 47.03,33.166 C 1.402,-91.93 1.402,-30.176 1.402,-16.141 1.402,-2.107 0,0 0,0"
                   style="fill:#c1c1c1;fill-opacity:1;fill-rule:nonzero;stroke:none"
                   id="path720" />
              </g>
            </g>
          </g>
        </g>
      </g>
    </g>
    <g
       id="g728">
      <g
         id="g730">
        <g
           id="g736">
          <g
             id="g738">
            <path
               d="m 173.561,616.271 h -2.105 -1.406 c 0,0 -30.874,-9.826 -47.015,-11.931 v 0 c -16.141,-2.105 -21.754,-2.806 -21.754,-2.806 v 0 c 0,0 -1.404,-2.107 -1.404,-16.141 v 0 c 0,-14.035 0,-75.79 23.158,-95.437 v 0 c 19.25,-16.336 40.425,-29.265 47.027,-33.166 v 0 l -0.012,-1.223 h 2.106 0.703 2.105 l -0.013,1.223 c 6.604,3.901 27.779,16.83 47.029,33.166 v 0 c 23.158,19.647 23.158,81.402 23.158,95.437 v 0 c 0,14.034 -1.401,16.141 -1.401,16.141 v 0 c 0,0 -5.615,0.701 -21.757,2.806 v 0 c -16.14,2.105 -47.016,11.931 -47.016,11.931 v 0 z"
               style="fill:url(#linearGradient748);stroke:none"
               id="path750" />
          </g>
        </g>
      </g>
    </g>
    <g
       id="g752">
      <g
         id="g754">
        <g
           id="g760">
          <g
             id="g762">
            <path
               d="m 173.367,601.534 h -1.719 -1.147 c 0,0 -25.21,-8.025 -38.393,-9.744 v 0 c -13.181,-1.718 -17.765,-2.29 -17.765,-2.29 v 0 c 0,0 -1.145,-1.72 -1.145,-13.182 v 0 c 0,-11.459 0,-61.888 18.91,-77.934 v 0 c 15.719,-13.337 33.013,-23.896 38.403,-27.082 v 0 l -0.01,-0.997 h 1.719 0.575 1.719 l -0.01,0.997 c 5.394,3.186 22.684,13.745 38.404,27.082 v 0 c 18.911,16.046 18.911,66.475 18.911,77.934 v 0 c 0,11.462 -1.147,13.182 -1.147,13.182 v 0 c 0,0 -4.583,0.572 -17.764,2.29 v 0 c -13.181,1.719 -38.394,9.744 -38.394,9.744 v 0 z"
               style="fill:url(#linearGradient772);stroke:none"
               id="path774" />
          </g>
        </g>
      </g>
    </g>
    <g
       id="g776">
      <g
         id="g778"
         clip-path="url(#clipPath782)">
        <g
           id="g784">
          <g
             id="g786" />
          <g
             id="g848">
            <g
               clip-path="url(#clipPath790)"
               opacity="0.600006"
               id="g846">
              <g
                 id="g844">
                <g
                   clip-path="url(#clipPath794)"
                   id="g842">
                  <g
                     id="g840">
                    <g
                       id="g832" />
                    <g
                       mask="url(#mask810)"
                       id="g838">
                      <g
                         id="g836">
                        <path
                           d="m 223.674,583.054 c 0,0 -4.032,0.502 -15.628,2.015 -10.57,1.379 -29.934,7.366 -33.271,8.413 V 479.379 c 5.249,3.125 19.906,12.181 33.271,23.521 16.635,14.117 16.635,58.476 16.635,68.558 0,10.083 -1.007,11.596 -1.007,11.596"
                           style="fill:url(#linearGradient830);stroke:none"
                           id="path834" />
                      </g>
                    </g>
                  </g>
                </g>
              </g>
            </g>
          </g>
        </g>
      </g>
    </g>
    <g
       id="g850">
      <g
         id="g852">
        <g
           id="g858">
          <g
             id="g860">
            <path
               d="m 156.087,565.703 v -9.965 h -4.009 c -2.93,0 -5.309,-2.378 -5.309,-5.308 v 0 -38.551 c 0,-2.932 2.379,-5.31 5.309,-5.31 v 0 h 40.798 c 2.933,0 5.309,2.378 5.309,5.31 v 0 38.551 c 0,2.93 -2.376,5.308 -5.309,5.308 v 0 h -4.009 v 9.965 c 0,9.036 -7.354,16.389 -16.39,16.389 v 0 c -9.037,0 -16.39,-7.353 -16.39,-16.389 m 6.202,0 c 0,5.618 4.571,10.187 10.188,10.187 v 0 c 5.618,0 10.189,-4.569 10.189,-10.187 v 0 -9.965 h -20.377 z m 7.334,-35.844 c -1.737,0.953 -2.914,2.798 -2.914,4.919 v 0 c 0,3.099 2.51,5.61 5.609,5.61 v 0 c 3.096,0 5.608,-2.511 5.608,-5.61 v 0 c 0,-2.121 -1.177,-3.966 -2.914,-4.919 v 0 l 2.063,-9.226 h -9.515 z"
               style="fill:url(#linearGradient870);stroke:none"
               id="path872" />
          </g>
        </g>
      </g>
    </g>
    <g
       id="g874">
      <g
         id="g876"
         clip-path="url(#clipPath880)">
        <g
           id="g882"
           transform="translate(50.6385,252.4964)">
          <path
             d="M 0,0 C 0.429,28.279 23.706,50.857 51.981,50.428 80.26,50.001 102.842,26.73 102.413,-1.549 101.986,-29.822 78.711,-52.404 50.432,-51.975 22.157,-51.548 -0.429,-28.273 0,0"
             style="fill:#f99c1c;fill-opacity:1;fill-rule:nonzero;stroke:none"
             id="path884" />
        </g>
        <g
           id="g886"
           transform="translate(102.4275,290.155)">
          <path
             d="m 0,0 c -21.194,0.32 -38.696,-16.661 -39.018,-37.853 -0.319,-21.189 16.661,-38.69 37.853,-39.011 21.194,-0.32 38.698,16.659 39.018,37.85 C 38.172,-17.824 21.194,-0.322 0,0 m -1.258,-83.076 c -24.62,0.372 -44.346,20.7 -43.973,45.318 0.372,24.619 20.704,44.344 45.324,43.972 C 24.713,5.839 44.439,-14.491 44.066,-39.109 43.692,-63.727 23.362,-83.45 -1.258,-83.076"
             style="fill:#d65d26;fill-opacity:1;fill-rule:nonzero;stroke:none"
             id="path888" />
        </g>
        <g
           id="g890"
           transform="translate(96.7782,260.7105)">
          <path
             d="M 0,0 C -0.014,-0.981 0.364,-1.75 1.149,-2.314 1.936,-2.872 2.983,-3.386 4.298,-3.861 L 4.401,2.943 C 1.495,2.872 0.028,1.893 0,0 m 10.718,-18.186 c 0.012,0.943 -0.305,1.695 -0.959,2.253 -0.651,0.559 -1.636,1.05 -2.953,1.493 l -0.105,-6.974 c 2.648,0.186 3.987,1.266 4.017,3.228 m -15.69,0.746 c 0.107,-0.149 0.435,-0.404 0.973,-0.752 0.55,-0.35 1.244,-0.732 2.09,-1.139 0.841,-0.41 1.782,-0.803 2.813,-1.177 1.032,-0.368 2.081,-0.641 3.131,-0.811 l 0.118,7.712 -1.807,0.48 c -1.921,0.556 -3.651,1.159 -5.188,1.806 -1.535,0.649 -2.836,1.44 -3.906,2.385 -1.062,0.934 -1.877,2.077 -2.441,3.408 -0.562,1.333 -0.829,2.921 -0.801,4.774 0.032,2.152 0.435,3.986 1.211,5.483 0.785,1.501 1.809,2.721 3.093,3.661 1.274,0.947 2.747,1.651 4.389,2.118 1.653,0.469 3.388,0.724 5.203,0.777 L 4.005,17.854 7.919,17.796 7.82,11.163 C 10.421,10.9 12.996,10.332 15.524,9.46 18.071,8.595 20.348,7.464 22.365,6.07 l -4.207,-8.04 c -0.142,0.192 -0.544,0.508 -1.2,0.949 -0.653,0.445 -1.493,0.912 -2.502,1.399 C 13.443,0.866 12.298,1.339 11.02,1.792 9.741,2.245 8.425,2.575 7.067,2.789 L 6.954,-4.753 9.662,-5.587 c 1.845,-0.592 3.435,-1.235 4.786,-1.917 1.349,-0.68 2.466,-1.463 3.343,-2.34 0.874,-0.888 1.52,-1.902 1.938,-3.036 0.413,-1.141 0.617,-2.464 0.593,-3.979 -0.03,-1.966 -0.399,-3.706 -1.109,-5.227 -0.699,-1.517 -1.634,-2.819 -2.803,-3.901 -1.169,-1.077 -2.542,-1.912 -4.118,-2.513 -1.578,-0.598 -3.277,-0.981 -5.089,-1.146 l -0.087,-5.723 -3.916,0.059 0.087,5.722 c -2.448,0.269 -4.752,0.85 -6.893,1.752 -2.139,0.906 -3.993,1.816 -5.563,2.753 z"
             style="fill:#d65d26;fill-opacity:1;fill-rule:nonzero;stroke:none"
             id="path892" />
        </g>
      </g>
    </g>
  </g>
</svg>
